<svg xmlns="http://www.w3.org/2000/svg" xmlns:xlink="http://www.w3.org/1999/xlink" viewBox="0 0 616 417" width="616" height="417" preserveAspectRatio="xMidYMid meet" style="width: 100%; height: 100%; transform: translate3d(0px, 0px, 0px); content-visibility: visible;"><defs><clipPath id="__lottie_element_8"><rect width="616" height="417" x="0" y="0"></rect></clipPath><clipPath id="__lottie_element_13"><path d="M0,0 L71,0 L71,119 L0,119z"></path></clipPath><g id="__lottie_element_16"><g clip-path="url(#__lottie_element_17)" transform="matrix(1,0,0,1,545.1380004882812,-60)" opacity="1" style="display: block;"><g style="display: block;" transform="matrix(1,0,0,1,1,60)" opacity="1"><path fill="rgb(0,0,0)" fill-opacity="1" d=" M70.86199951171875,0 C70.86199951171875,0 -1,0 -1,0 C-1,0 -1,119 -1,119 C-1,119 70.86199951171875,119 70.86199951171875,119 C70.86199951171875,119 70.86199951171875,0 70.86199951171875,0z"></path></g><g clip-path="url(#__lottie_element_111)" transform="matrix(1,0,0,1,1,0)" opacity="1" style="display: block;"><g transform="matrix(1,0,0,1,0,60)" opacity="1" style="display: block;"><path fill="rgb(0,0,0)" fill-opacity="1" d=" M69.49600219726562,0 C69.49600219726562,0 0,0 0,0 C0,0 0,118.04000091552734 0,118.04000091552734 C0,118.04000091552734 69.49600219726562,118.04000091552734 69.49600219726562,118.04000091552734 C69.49600219726562,118.04000091552734 69.49600219726562,0 69.49600219726562,0z"></path></g></g></g></g><clipPath id="__lottie_element_17"><path d="M0,0 L72,0 L72,357 L0,357z"></path></clipPath><clipPath id="__lottie_element_24"><path d="M0,0 L62,0 L62,44 L0,44z"></path></clipPath><clipPath id="__lottie_element_29"><path d="M0,0 L19,0 L19,36 L0,36z"></path></clipPath><clipPath id="__lottie_element_34"><path d="M0,0 L450,0 L450,185 L0,185z"></path></clipPath><clipPath id="__lottie_element_39"><path d="M0,0 L443,0 L443,188 L0,188z"></path></clipPath><clipPath id="__lottie_element_44"><path d="M0,0 L604,0 L604,104 L0,104z"></path></clipPath><g id="__lottie_element_47"><g clip-path="url(#__lottie_element_48)" transform="matrix(1,0,0,1,25,327)" opacity="1" style="display: block;"><g style="display: block;" transform="matrix(1,0,0,1,47,8)" opacity="1"><path fill="rgb(0,0,0)" fill-opacity="1" d=" M603.2999877929688,-8 C603.2999877929688,-8 -47,-8 -47,-8 C-47,-8 -47,104 -47,104 C-47,104 603.2999877929688,104 603.2999877929688,104 C603.2999877929688,104 603.2999877929688,-8 603.2999877929688,-8z"></path></g><g clip-path="url(#__lottie_element_208)" transform="matrix(1,0,0,1,47,8)" opacity="1" style="display: block;"><g transform="matrix(1,0,0,1,0,0)" opacity="1" style="display: block;"><path fill="rgb(0,0,0)" fill-opacity="1" d=" M463,0 C463,0 0,0 0,0 C0,0 0,80 0,80 C0,80 463,80 463,80 C463,80 463,0 463,0z"></path></g></g></g></g><clipPath id="__lottie_element_48"><path d="M0,0 L651,0 L651,112 L0,112z"></path></clipPath><clipPath id="__lottie_element_53"><path d="M0,0 L604,0 L604,104 L0,104z"></path></clipPath><g id="__lottie_element_56"><g clip-path="url(#__lottie_element_57)" transform="matrix(1,0,0,1,-12,5)" opacity="1" style="display: block;"><g style="display: block;" transform="matrix(1,0,0,1,47,8)" opacity="1"><path fill="rgb(0,0,0)" fill-opacity="1" d=" M603.2999877929688,-8 C603.2999877929688,-8 -47,-8 -47,-8 C-47,-8 -47,104 -47,104 C-47,104 603.2999877929688,104 603.2999877929688,104 C603.2999877929688,104 603.2999877929688,-8 603.2999877929688,-8z"></path></g><g clip-path="url(#__lottie_element_254)" transform="matrix(1,0,0,1,47,8)" opacity="1" style="display: block;"><g transform="matrix(1,0,0,1,0,0)" opacity="1" style="display: block;"><path fill="rgb(0,0,0)" fill-opacity="1" d=" M463,0 C463,0 0,0 0,0 C0,0 0,80 0,80 C0,80 463,80 463,80 C463,80 463,0 463,0z"></path></g></g></g></g><clipPath id="__lottie_element_57"><path d="M0,0 L651,0 L651,112 L0,112z"></path></clipPath><mask id="__lottie_element_56_1" mask-type="alpha"><use xlink:href="#__lottie_element_56"></use></mask><mask id="__lottie_element_47_1" mask-type="alpha"><use xlink:href="#__lottie_element_47"></use></mask><mask id="__lottie_element_16_1" mask-type="alpha"><use xlink:href="#__lottie_element_16"></use></mask><clipPath id="__lottie_element_64"><path d="M0,0 L27,0 L27,26 L0,26z"></path></clipPath><clipPath id="__lottie_element_69"><path d="M0,0 L27,0 L27,18 L0,18z"></path></clipPath><clipPath id="__lottie_element_74"><path d="M0,0 L17,0 L17,17 L0,17z"></path></clipPath><clipPath id="__lottie_element_79"><path d="M0,0 L10,0 L10,9 L0,9z"></path></clipPath><clipPath id="__lottie_element_111"><path d="M0,0 L70,0 L70,297 L0,297z"></path></clipPath><clipPath id="__lottie_element_121"><path d="M0,0 L61,0 L61,44 L0,44z"></path></clipPath><clipPath id="__lottie_element_138"><path d="M0,0 L268,0 L268,158 L0,158z"></path></clipPath><clipPath id="__lottie_element_143"><path d="M0,0 L132,0 L132,138 L0,138z"></path></clipPath><clipPath id="__lottie_element_160"><path d="M0,0 L431,0 L431,183 L0,183z"></path></clipPath><clipPath id="__lottie_element_171"><path d="M0,0 L557,0 L557,96 L0,96z"></path></clipPath><g id="__lottie_element_174"><g clip-path="url(#__lottie_element_175)" transform="matrix(1,0,0,1,0,-32)" opacity="1" style="display: block;"><g style="display: block;" transform="matrix(1,0,0,1,47,40)" opacity="1"><path fill="rgb(0,0,0)" fill-opacity="1" d=" M556.2999877929688,-8 C556.2999877929688,-8 -47,-8 -47,-8 C-47,-8 -47,96 -47,96 C-47,96 556.2999877929688,96 556.2999877929688,96 C556.2999877929688,96 556.2999877929688,-8 556.2999877929688,-8z"></path></g><g clip-path="url(#__lottie_element_195)" transform="matrix(1,0,0,1,47,0)" opacity="1" style="display: block;"><g transform="matrix(1,0,0,1,0,40)" opacity="1" style="display: block;"><path fill="rgb(0,0,0)" fill-opacity="1" d=" M463,0 C463,0 0,0 0,0 C0,0 0,80 0,80 C0,80 463,80 463,80 C463,80 463,0 463,0z"></path></g></g></g></g><clipPath id="__lottie_element_175"><path d="M0,0 L604,0 L604,200 L0,200z"></path></clipPath><mask id="__lottie_element_174_1" mask-type="alpha"><use xlink:href="#__lottie_element_174"></use></mask><clipPath id="__lottie_element_181"><path d="M0,0 L463,0 L463,80 L0,80z"></path></clipPath><clipPath id="__lottie_element_195"><path d="M0,0 L463,0 L463,160 L0,160z"></path></clipPath><clipPath id="__lottie_element_208"><path d="M0,0 L463,0 L463,80 L0,80z"></path></clipPath><clipPath id="__lottie_element_217"><path d="M0,0 L557,0 L557,96 L0,96z"></path></clipPath><g id="__lottie_element_220"><g clip-path="url(#__lottie_element_221)" transform="matrix(1,0,0,1,0,-32)" opacity="1" style="display: block;"><g style="display: block;" transform="matrix(1,0,0,1,47,40)" opacity="1"><path fill="rgb(0,0,0)" fill-opacity="1" d=" M556.2999877929688,-8 C556.2999877929688,-8 -47,-8 -47,-8 C-47,-8 -47,96 -47,96 C-47,96 556.2999877929688,96 556.2999877929688,96 C556.2999877929688,96 556.2999877929688,-8 556.2999877929688,-8z"></path></g><g clip-path="url(#__lottie_element_241)" transform="matrix(1,0,0,1,47,0)" opacity="1" style="display: block;"><g transform="matrix(1,0,0,1,0,40)" opacity="1" style="display: block;"><path fill="rgb(0,0,0)" fill-opacity="1" d=" M463,0 C463,0 0,0 0,0 C0,0 0,80 0,80 C0,80 463,80 463,80 C463,80 463,0 463,0z"></path></g></g></g></g><clipPath id="__lottie_element_221"><path d="M0,0 L604,0 L604,200 L0,200z"></path></clipPath><mask id="__lottie_element_220_1" mask-type="alpha"><use xlink:href="#__lottie_element_220"></use></mask><clipPath id="__lottie_element_227"><path d="M0,0 L463,0 L463,80 L0,80z"></path></clipPath><clipPath id="__lottie_element_241"><path d="M0,0 L463,0 L463,160 L0,160z"></path></clipPath><clipPath id="__lottie_element_254"><path d="M0,0 L463,0 L463,80 L0,80z"></path></clipPath></defs><g clip-path="url(#__lottie_element_8)"><g mask="url(#__lottie_element_16_1)" style="display: block;"><g clip-path="url(#__lottie_element_13)" transform="matrix(1,0,0,1,545.1380004882812,0)" opacity="1"><g clip-path="url(#__lottie_element_64)" transform="matrix(1,0,0,1,43.86199951171875,0)" opacity="1" style="display: block;"><g transform="matrix(1.333299994468689,0,0,1.333299994468689,0,0)" opacity="1" style="display: block;"><g opacity="1" transform="matrix(1,0,0,1,0,0)"><g opacity="1" transform="matrix(1,0,0,1,0,0)"><g opacity="1" transform="matrix(1,0,0,1,0,0)"><path fill="rgb(255,255,255)" fill-opacity="1" d=" M11.819999694824219,13.449999809265137 C12.649999618530273,13.260000228881836 13.479999542236328,13.029999732971191 14.279999732971191,12.75 C14.569999694824219,12.640000343322754 14.9399995803833,12.050000190734863 14.859999656677246,11.850000381469727 C14.239999771118164,10.279999732971191 13.5,8.760000228881836 12.65999984741211,7.289999961853027 C11.949999809265137,6.320000171661377 11.15999984741211,5.409999847412109 10.289999961853027,4.579999923706055 C9.140000343322754,6.179999828338623 7.559999942779541,7.630000114440918 6.940000057220459,9.420000076293945 C6.300000190734863,11.279999732971191 9.069999694824219,13.449999809265137 11.819999694824219,13.449999809265137 M11.460000038146973,0 C13.210000038146973,0.07000000029802322 14.90999984741211,0.6800000071525574 16.309999465942383,1.75 C17.709999084472656,2.819999933242798 18.739999771118164,4.28000020980835 19.270000457763672,5.960000038146973 C19.729999542236328,7.25 19.280000686645508,8.829999923706055 19.389999389648438,10.270000457763672 C19.459999084472656,11.319999694824219 20.200000762939453,12.510000228881836 19.899999618530273,13.369999885559082 C19.350000381469727,14.90999984741211 18.56999969482422,16.920000076293945 17.299999237060547,17.520000457763672 C14.880000114440918,18.649999618530273 12.270000457763672,19.290000915527344 9.600000381469727,19.399999618530273 C4.889999866485596,19.579999923706055 -0.20000000298023224,14.850000381469727 0.25,10.84000015258789 C0.6800000071525574,7.019999980926514 2.740000009536743,3.119999885559082 7.019999980926514,1.4900000095367432 C8.479999542236328,0.9399999976158142 9.979999542236328,0.5 11.460000038146973,0 C11.460000038146973,0 11.460000038146973,0 11.460000038146973,0z"></path></g></g></g></g><g transform="matrix(1,0,0,1,0,0)" opacity="1" style="display: block;"><path fill="rgb(0,0,0)" fill-opacity="0" d=" M27,0 C27,0 0,0 0,0 C0,0 0,26 0,26 C0,26 27,26 27,26 C27,26 27,0 27,0z"></path></g></g><g clip-path="url(#__lottie_element_69)" transform="matrix(1,0,0,1,21.86199951171875,72)" opacity="1" style="display: block;"><g transform="matrix(1.333299994468689,0,0,1.333299994468689,0,0)" opacity="1" style="display: block;"><g opacity="1" transform="matrix(1,0,0,1,0,0)"><g opacity="1" transform="matrix(1,0,0,1,0,0)"><path fill="rgb(255,255,255)" fill-opacity="1" d=" M10.850000381469727,7.389999866485596 C10.850000381469727,7.389999866485596 13.020000457763672,5.78000020980835 13.020000457763672,5.78000020980835 C12.329999923706055,5.559999942779541 11.59000015258789,5.079999923706055 10.949999809265137,5.179999828338623 C10.199999809265137,5.429999828338623 9.5,5.820000171661377 8.890000343322754,6.320000171661377 C8.890000343322754,6.320000171661377 10.850000381469727,7.389999866485596 10.850000381469727,7.389999866485596z M8.65999984741211,13.390000343322754 C6.949999809265137,13.470000267028809 5.260000228881836,13.069999694824219 3.7899999618530273,12.199999809265137 C2.319999933242798,11.329999923706055 1.1299999952316284,10.050000190734863 0.3799999952316284,8.510000228881836 C0.009999999776482582,7.820000171661377 1.7100000381469727,5.579999923706055 2.890000104904175,4.559999942779541 C4.53000020980835,3.0999999046325684 6.400000095367432,1.940000057220459 8.4399995803833,1.1399999856948853 C10.140000343322754,0.49000000953674316 11.989999771118164,0.36000001430511475 13.760000228881836,0.7599999904632568 C15.770000457763672,1.309999942779541 17.610000610351562,2.369999885559082 19.09000015258789,3.8299999237060547 C21.139999389648438,5.940000057220459 20.360000610351562,7.960000038146973 17.649999618530273,9.300000190734863 C16.18000030517578,10.029999732971191 14.90999984741211,11.1899995803833 13.420000076293945,11.869999885559082 C11.869999885559082,12.479999542236328 10.279999732971191,12.979999542236328 8.65999984741211,13.390000343322754"></path></g></g></g><g transform="matrix(1,0,0,1,0,0)" opacity="1" style="display: block;"><path fill="rgb(0,0,0)" fill-opacity="0" d=" M27,0 C27,0 0,0 0,0 C0,0 0,18 0,18 C0,18 27,18 27,18 C27,18 27,0 27,0z"></path></g></g><g clip-path="url(#__lottie_element_74)" transform="matrix(1,0,0,1,0.8619999885559082,102)" opacity="1" style="display: block;"><g transform="matrix(1.333299994468689,0,0,1.333299994468689,0,0)" opacity="1" style="display: block;"><g opacity="1" transform="matrix(1,0,0,1,0,0)"><g opacity="1" transform="matrix(1,0,0,1,0,0)"><path fill="rgb(255,255,255)" fill-opacity="1" d=" M5.739999771118164,12.029999732971191 C1.4500000476837158,11.850000381469727 0.14000000059604645,10.470000267028809 0.10000000149011612,5.900000095367432 C0.07999999821186066,3.6500000953674316 4.71999979019165,0.5600000023841858 7.840000152587891,0.6800000071525574 C11,0.8100000023841858 12.800000190734863,3.0799999237060547 12.699999809265137,6.949999809265137 C12.609999656677246,10.329999923706055 9.579999923706055,11.760000228881836 5.739999771118164,12.029999732971191 C5.739999771118164,12.029999732971191 5.739999771118164,12.029999732971191 5.739999771118164,12.029999732971191z"></path></g></g></g><g transform="matrix(1,0,0,1,0,0)" opacity="1" style="display: block;"><path fill="rgb(0,0,0)" fill-opacity="0" d=" M17,0 C17,0 0,0 0,0 C0,0 0,17 0,17 C0,17 17,17 17,17 C17,17 17,0 17,0z"></path></g></g><g clip-path="url(#__lottie_element_79)" transform="matrix(1,0,0,1,23.86199951171875,33)" opacity="1" style="display: block;"><g transform="matrix(1.333299994468689,0,0,1.333299994468689,0,0)" opacity="1" style="display: block;"><g opacity="1" transform="matrix(1,0,0,1,0,0)"><g opacity="1" transform="matrix(1,0,0,1,0,0)"><path fill="rgb(255,255,255)" fill-opacity="1" d=" M3.440000057220459,6.28000020980835 C1.5499999523162842,6.360000133514404 0.23000000417232513,5.050000190734863 0.9100000262260437,3.3499999046325684 C1.4600000381469727,1.9800000190734863 3.2799999713897705,0.8999999761581421 4.78000020980835,0.30000001192092896 C5.210000038146973,0.12999999523162842 7.190000057220459,2.0899999141693115 7.239999771118164,3.1500000953674316 C7.360000133514404,5.199999809265137 5.820000171661377,6.340000152587891 3.440000057220459,6.289999961853027"></path></g></g></g><g transform="matrix(1,0,0,1,0,0)" opacity="1" style="display: block;"><path fill="rgb(0,0,0)" fill-opacity="0" d=" M10,0 C10,0 0,0 0,0 C0,0 0,9 0,9 C0,9 10,9 10,9 C10,9 10,0 10,0z"></path></g></g></g></g><g clip-path="url(#__lottie_element_24)" transform="matrix(1,0,0,1,-1,25)" opacity="1" style="display: block;"><g clip-path="url(#__lottie_element_121)" transform="matrix(1.0163999795913696,0,0,1.0163999795913696,0,-0.3610000014305115)" opacity="1" style="display: block;"><g transform="matrix(1.333299994468689,0,0,1.333299994468689,0,0)" opacity="1" style="display: block;"><g opacity="1" transform="matrix(1,0,0,1,0,0)"><g opacity="1" transform="matrix(1,0,0,1,0,0)"><path fill="rgb(255,255,255)" fill-opacity="1" d=" M45.13999938964844,30.6200008392334 C45.13999938964844,30.6200008392334 36.709999084472656,7.920000076293945 20.360000610351562,2.319999933242798 C4,-3.2799999713897705 -0.8100000023841858,4.5 0.10000000149011612,10.09000015258789 C1.0099999904632568,15.680000305175781 4.309999942779541,22.40999984741211 23.989999771118164,24.709999084472656 C43.66999816894531,27.010000228881836 45.70000076293945,32.90999984741211 45.70000076293945,32.90999984741211 C45.70000076293945,32.90999984741211 45.13999938964844,30.6200008392334 45.13999938964844,30.6200008392334z"></path></g></g></g><g transform="matrix(1,0,0,1,0,0)" opacity="1" style="display: block;"><path fill="rgb(0,0,0)" fill-opacity="0" d=" M61,0 C61,0 0,0 0,0 C0,0 0,44 0,44 C0,44 61,44 61,44 C61,44 61,0 61,0z"></path></g></g></g><g clip-path="url(#__lottie_element_29)" transform="matrix(1,0,0,1,61,24)" opacity="1" style="display: block;"><g transform="matrix(1.333299994468689,0,0,1.333299994468689,0,0)" opacity="1" style="display: block;"><g opacity="1" transform="matrix(1,0,0,1,0,0)"><g opacity="1" transform="matrix(1,0,0,1,0,0)"><path fill="rgb(255,255,255)" fill-opacity="1" d=" M4.130000114440918,26.270000457763672 C4.130000114440918,26.270000457763672 6.010000228881836,17.610000610351562 10.229999542236328,13.539999961853027 C14.449999809265137,9.470000267028809 14.149999618530273,4.21999979019165 12.09000015258789,2.2100000381469727 C10.029999732971191,0.1899999976158142 4.769999980926514,-1.2999999523162842 1.5800000429153442,4.409999847412109 C-1.6100000143051147,10.119999885559082 4.130000114440918,26.270000457763672 4.130000114440918,26.270000457763672 C4.130000114440918,26.270000457763672 4.130000114440918,26.270000457763672 4.130000114440918,26.270000457763672z"></path></g></g></g><g transform="matrix(1,0,0,1,0,0)" opacity="1" style="display: block;"><path fill="rgb(0,0,0)" fill-opacity="0" d=" M19,0 C19,0 0,0 0,0 C0,0 0,36 0,36 C0,36 19,36 19,36 C19,36 19,0 19,0z"></path></g></g><g clip-path="url(#__lottie_element_34)" transform="matrix(0.999996542930603,0,0,0.999996542930603,51.3418083190918,53.84231948852539)" opacity="0.9999931193609323" style="display: block;"><g clip-path="url(#__lottie_element_138)" transform="matrix(1,0,0,1,16.659000396728516,26.158000946044922)" opacity="1" style="display: block;"><g transform="matrix(1.333299994468689,0,0,1.333299994468689,0,0)" opacity="1" style="display: block;"><g opacity="1" transform="matrix(1,0,0,1,0,0)"><g opacity="1" transform="matrix(1,0,0,1,0,0)"><path fill="rgb(255,255,255)" fill-opacity="1" d=" M154.97000122070312,85.6500015258789 C158.8300018310547,90.19999694824219 162.92999267578125,93.6500015258789 176.02000427246094,94.22000122070312 C176.02000427246094,94.22000122070312 177.97999572753906,93.94000244140625 177.97999572753906,93.94000244140625 C183.5,93.16999816894531 191.2100067138672,91.69000244140625 194.94000244140625,85.80000305175781 C196.35000610351562,83.45999908447266 197.0399932861328,80.66999816894531 198.1300048828125,77.97000122070312 C199.05999755859375,75.0199966430664 200.13999938964844,72.19999694824219 200.47999572753906,68.93000030517578 C200.47999572753906,68.93000030517578 200.55999755859375,67.58000183105469 200.55999755859375,67.58000183105469 C200.75999450683594,63.2599983215332 201.16000366210938,58.5099983215332 200.4199981689453,54.189998626708984 C200.4199981689453,54.189998626708984 200.91000366210938,47.15999984741211 200.91000366210938,47.15999984741211 C200.91000366210938,47.15999984741211 200.66000366210938,46.38999938964844 200.66000366210938,46.38999938964844 C200.44000244140625,46.45000076293945 200.22999572753906,46.52000045776367 200.02000427246094,46.61000061035156 C199.22999572753906,46.720001220703125 199.0500030517578,46.349998474121094 198.25999450683594,46.459999084472656 C197.0800018310547,46.619998931884766 195.97000122070312,47.310001373291016 194.9199981689453,47.459999084472656 C192.02999877929688,47.869998931884766 189.3000030517578,47.58000183105469 186.5399932861328,47.970001220703125 C186.5399932861328,47.970001220703125 184.17999267578125,48.29999923706055 184.17999267578125,48.29999923706055 C183.7899932861328,48.349998474121094 183.58999633789062,48.90999984741211 183.6300048828125,49.18000030517578 C183.5500030517578,49.939998626708984 183.52000427246094,50.70000076293945 183.5500030517578,51.470001220703125 C183.63999938964844,52.130001068115234 183.55999755859375,55.36000061035156 183.6699981689453,56.150001525878906 C183.5800018310547,56.43000030517578 183.64999389648438,56.95000076293945 183.92999267578125,57.04999923706055 C184.72000122070312,56.939998626708984 187.91000366210938,56.75 188.57000732421875,56.65999984741211 C190.19000244140625,56.70000076293945 191.89999389648438,56.459999084472656 191.75,58.22999954223633 C191.6699981689453,59.58000183105469 191.77999877929688,66.12999725341797 191.6999969482422,67.4800033569336 C191.6999969482422,67.4800033569336 191.25999450683594,73.8499984741211 191.25999450683594,73.8499984741211 C191.25999450683594,73.8499984741211 190.3000030517578,80.41999816894531 190.3000030517578,80.41999816894531 C188.33999633789062,83.63999938964844 187.92999267578125,84.5 184.60000610351562,85.63999938964844 C184.07000732421875,85.70999908447266 181.47000122070312,86.2300033569336 180.94000244140625,86.30000305175781 C178.6199951171875,86.69999694824219 176.27000427246094,86.88999938964844 173.9199981689453,86.87999725341797 C172.5800018310547,86.93000030517578 171.30999755859375,86.44000244140625 170.11000061035156,86.4800033569336 C160,82.2699966430664 158.0500030517578,76.08999633789062 158.7100067138672,64.61000061035156 C158.7100067138672,64.61000061035156 159.66000366210938,48.38999938964844 159.66000366210938,48.38999938964844 C159.66000366210938,48.38999938964844 159.77000427246094,46.36000061035156 159.77000427246094,46.36000061035156 C159.77000427246094,46.36000061035156 160.4600067138672,39.83000183105469 160.4600067138672,39.83000183105469 C160.4600067138672,39.83000183105469 160.5,38.209999084472656 160.5,38.209999084472656 C160.5,38.209999084472656 162.5500030517578,28 162.5500030517578,28 C162.5500030517578,28 165.00999450683594,20.690000534057617 165.00999450683594,20.690000534057617 C166.25999450683594,17.15999984741211 167.69000244140625,14.020000457763672 171,11.8100004196167 C173.7899932861328,9.930000305175781 176.94000244140625,8.649999618530273 180.25999450683594,8.09000015258789 C180.25999450683594,8.09000015258789 183.1300048828125,8.489999771118164 183.1300048828125,8.489999771118164 C186.5500030517578,8.949999809265137 188.75999450683594,10.390000343322754 191.25,12.850000381469727 C191.57000732421875,13.210000038146973 192.72999572753906,15.720000267028809 193.38999938964844,15.630000114440918 C194.6999969482422,15.4399995803833 199.57000732421875,12.890000343322754 199.58999633789062,11.140000343322754 C199.69000244140625,9.920000076293945 198.36000061035156,8.09000015258789 198.1199951171875,7.320000171661377 C194.9600067138672,1.059999942779541 186.88999938964844,-0.07999999821186066 179.9199981689453,0.8999999761581421 C171.77000427246094,2.0399999618530273 167.6199951171875,4.909999847412109 162.17999267578125,11.979999542236328 C162.17999267578125,11.979999542236328 158.89999389648438,18.200000762939453 158.89999389648438,18.200000762939453 C158.0500030517578,19.790000915527344 158.44000244140625,19.739999771118164 157.64999389648438,21.729999542236328 C157.47999572753906,22.420000076293945 156.89999389648438,23.040000915527344 156.86000061035156,23.719999313354492 C154.11000061035156,34.27000045776367 152.38999938964844,45.060001373291016 151.72999572753906,55.939998626708984 C151.19000244140625,63.52000045776367 150.63999938964844,80.62999725341797 154.97000122070312,85.6500015258789 C154.97000122070312,85.6500015258789 154.97000122070312,85.6500015258789 154.97000122070312,85.6500015258789z M104.93000030517578,104.4800033569336 C107.68000030517578,104.87000274658203 110.4800033569336,104.83000183105469 113.2300033569336,104.37999725341797 C113.41000366210938,104.12999725341797 113.51000213623047,103.83999633789062 113.5199966430664,103.54000091552734 C113.61000061035156,103.26000213623047 113.19999694824219,102.23999786376953 113.18000030517578,102.11000061035156 C112.4800033569336,98.86000061035156 112.0999984741211,95.54000091552734 112.05999755859375,92.20999908447266 C112.38999938964844,79.30000305175781 113.11000061035156,66.33000183105469 114,53.599998474121094 C115.01000213623047,39.790000915527344 114.3499984741211,33.18000030517578 114.5,31.40999984741211 C115.19999694824219,31.579999923706055 116.56999969482422,38.5 117.12999725341797,39.630001068115234 C117.5,41.31999969482422 118.37999725341797,42.79999923706055 118.75,44.4900016784668 C119.08999633789062,45.91999816894531 119.48999786376953,48.810001373291016 119.76000213623047,48.77000045776367 C119.76000213623047,48.77000045776367 122.87999725341797,63.349998474121094 122.87999725341797,63.349998474121094 C122.80999755859375,63.79999923706055 122.87999725341797,64.25 123.06999969482422,64.66000366210938 C126.47000122070312,80.2699966430664 129.66000366210938,89.61000061035156 132.3800048828125,98.4800033569336 C132.22000122070312,101.18000030517578 133.9499969482422,101.06999969482422 134.8699951171875,100.94000244140625 C134.8699951171875,100.94000244140625 142.88999938964844,99.80999755859375 142.88999938964844,99.80999755859375 C143.4199981689453,99.73999786376953 143.5800018310547,99.05000305175781 143.50999450683594,98.5199966430664 C143.5500030517578,97.83999633789062 142.66000366210938,88.72000122070312 142.86000061035156,86.27999877929688 C143.85000610351562,71.38999938964844 145.35000610351562,56.29999923706055 147,41.31999969482422 C147.39999389648438,37.5099983215332 148.07000732421875,33.66999816894531 148.33999633789062,29.8799991607666 C148.72999572753906,24.059999465942383 148.22999572753906,18.6299991607666 148.63999938964844,12.949999809265137 C148.8699951171875,9.829999923706055 149.8800048828125,8.350000381469727 149.8800048828125,7.409999847412109 C149.8800048828125,7.409999847412109 149.91000366210938,6.730000019073486 149.91000366210938,6.730000019073486 C150.0800018310547,6.039999961853027 149.89999389648438,5.659999847412109 148.5800018310547,5.849999904632568 C146.0800018310547,6.199999809265137 143.58999633789062,7.489999771118164 140.83999633789062,8.010000228881836 C140.83999633789062,8.010000228881836 140.63999938964844,12.319999694824219 140.63999938964844,12.319999694824219 C139.97999572753906,20.989999771118164 139.8699951171875,29.729999542236328 139.3300018310547,38.25 C139.3300018310547,38.25 138.17999267578125,53.959999084472656 138.17999267578125,53.959999084472656 C137.32000732421875,66.94999694824219 136.08999633789062,82.94999694824219 135.57000732421875,83.0199966430664 C134.22999572753906,78.25 131.58999633789062,65.20999908447266 129.5500030517578,54.5 C128.75,50.72999954223633 126.91000366210938,47.22999954223633 126.25,43.439998626708984 C126.25,43.439998626708984 121.31999969482422,21.739999771118164 121.31999969482422,21.739999771118164 C120.11000061035156,18.829999923706055 119.58000183105469,10.329999923706055 117.61000061035156,10.600000381469727 C117.61000061035156,10.600000381469727 109.33000183105469,11.760000228881836 109.33000183105469,11.760000228881836 C108.8499984741211,11.520000457763672 108.33000183105469,11.369999885559082 107.79000091552734,11.3100004196167 C107.52999877929688,11.350000381469727 107.02999877929688,11.5600004196167 107.08000183105469,11.949999809265137 C107.0199966430664,12.489999771118164 107.16999816894531,12.600000381469727 107.48999786376953,12.960000038146973 C107.48999786376953,12.960000038146973 106.3499984741211,54.40999984741211 106.3499984741211,54.40999984741211 C106.3499984741211,54.40999984741211 104.93000030517578,104.4800033569336 104.93000030517578,104.4800033569336z M87.55000305175781,104.77999877929688 C90.19999694824219,104.54000091552734 91.13999938964844,104.54000091552734 93.37000274658203,104.2300033569336 C93.37000274658203,104.2300033569336 94.81999969482422,104.0199966430664 94.81999969482422,104.0199966430664 C95.01000213623047,103.95999908447266 95.18000030517578,103.83999633789062 95.30000305175781,103.68000030517578 C95.41999816894531,103.5199966430664 95.4800033569336,103.33000183105469 95.48999786376953,103.12999725341797 C95.23999786376953,102.55999755859375 95.11000061035156,101.93000030517578 95.11000061035156,101.30000305175781 C94.68000030517578,98.52999877929688 94.5,95.7300033569336 94.5999984741211,92.93000030517578 C94.52999877929688,91.47000122070312 94.72000122070312,89.95999908447266 94.76000213623047,88.3499984741211 C94.76000213623047,88.3499984741211 95.18000030517578,82.79000091552734 95.18000030517578,82.79000091552734 C95.31999969482422,80.9000015258789 95.4800033569336,79.12999725341797 95.5,77.37999725341797 C95.4000015258789,72.83999633789062 94.98999786376953,68.06999969482422 95.41000366210938,63.45000076293945 C95.48999786376953,62.099998474121094 95.8499984741211,60.849998474121094 95.94999694824219,59.630001068115234 C96.1500015258789,56.25 96.08000183105469,52.90999984741211 96.38999938964844,49.380001068115234 C96.69000244140625,45.439998626708984 97.20999908447266,41.5099983215332 97.94999694824219,37.630001068115234 C97.94999694824219,37.630001068115234 99.11000061035156,21.110000610351562 99.11000061035156,21.110000610351562 C99.36000061035156,18.1299991607666 100.86000061035156,15.359999656677246 101.08999633789062,12.25 C101.0199966430664,11.970000267028809 100.88999938964844,11.720000267028809 100.70999908447266,11.5 C98.88999938964844,11.380000114440918 97.05000305175781,11.449999809265137 95.25,11.729999542236328 C95.25,11.729999542236328 94.06999969482422,11.899999618530273 94.06999969482422,11.899999618530273 C94.06999969482422,11.899999618530273 92.7699966430664,13.149999618530273 92.7699966430664,13.149999618530273 C92.7699966430664,13.149999618530273 92.27999877929688,19.25 91.9800033569336,21.84000015258789 C91.58999633789062,26.719999313354492 90.81999969482422,31.65999984741211 90.43000030517578,36.540000915527344 C89.69000244140625,47.5 89.06999969482422,58.310001373291016 88.56999969482422,69.11000061035156 C88.13999938964844,79.36000061035156 88.18000030517578,89.2699966430664 87.58000183105469,99.2699966430664 C87.58000183105469,99.2699966430664 87.08000183105469,104.30000305175781 87.08000183105469,104.30000305175781 C87.0999984741211,104.43000030517578 87.41999816894531,104.80000305175781 87.55000305175781,104.77999877929688 C87.55000305175781,104.77999877929688 87.55000305175781,104.77999877929688 87.55000305175781,104.77999877929688z M54.75,61.2599983215332 C54.849998474121094,60.97999954223633 54.810001373291016,58.84000015258789 54.88999938964844,58.43000030517578 C54.93000030517578,57.75 55.15999984741211,55.56999969482422 55.13999938964844,55.439998626708984 C55.20000076293945,54.88999938964844 56,50.099998474121094 55.93000030517578,49.56999969482422 C56.220001220703125,48.72999954223633 56.65999984741211,43.290000915527344 56.959999084472656,41.63999938964844 C56.959999084472656,41.63999938964844 57.119998931884766,38.939998626708984 57.119998931884766,38.939998626708984 C57.119998931884766,38.939998626708984 58.040000915527344,30.229999542236328 58.040000915527344,30.229999542236328 C58.040000915527344,30.229999542236328 58.06999969482422,29.559999465942383 58.06999969482422,29.559999465942383 C58.279998779296875,26.309999465942383 58.349998474121094,25.760000228881836 62.290000915527344,25.209999084472656 C67.94000244140625,24.420000076293945 75.2300033569336,23.790000915527344 76.41000366210938,30.329999923706055 C76.95999908447266,32.38999938964844 77.36000061035156,34.4900016784668 77.56999969482422,36.61000061035156 C77.58999633789062,36.7400016784668 77.55999755859375,40.369998931884766 77.6500015258789,41.959999084472656 C77.11000061035156,48.599998474121094 74.55000305175781,56.20000076293945 67.33999633789062,58.290000915527344 C67.33999633789062,58.290000915527344 56.52000045776367,61.41999816894531 56.52000045776367,61.41999816894531 C56.52000045776367,61.41999816894531 55.86000061035156,61.5099983215332 55.86000061035156,61.5099983215332 C55.20000076293945,61.599998474121094 54.810001373291016,61.650001525878906 54.75,61.2599983215332 C54.75,61.2599983215332 54.75,61.2599983215332 54.75,61.2599983215332z M42.41999816894531,111.79000091552734 C42.880001068115234,112.30999755859375 43.279998779296875,112.87999725341797 43.599998474121094,113.5 C43.599998474121094,113.5 52.0099983215332,112.31999969482422 52.0099983215332,112.31999969482422 C52.15999984741211,112.05999755859375 52.2599983215332,111.7699966430664 52.290000915527344,111.47000122070312 C52.290000915527344,111.47000122070312 52.349998474121094,110.93000030517578 52.349998474121094,110.93000030517578 C52.349998474121094,110.93000030517578 51.349998474121094,105.70999908447266 51.349998474121094,105.70999908447266 C51.349998474121094,105.70999908447266 51.63999938964844,99.2300033569336 51.81999969482422,96.66000366210938 C51.81999969482422,96.66000366210938 51.97999954223633,93.95999908447266 51.97999954223633,93.95999908447266 C51.97999954223633,88.19000244140625 51.95000076293945,82.30000305175781 52.36000061035156,76.61000061035156 C52.59000015258789,75.61000061035156 52.7599983215332,74.61000061035156 52.869998931884766,73.58999633789062 C52.869998931884766,73.58999633789062 52.97999954223633,72.5 52.97999954223633,72.5 C53.02000045776367,71.81999969482422 53.189998626708984,71.12999725341797 53.849998474121094,71.04000091552734 C55.15999984741211,70.86000061035156 58.150001525878906,72.04000091552734 59.13999938964844,72.44000244140625 C66.58000183105469,75.81999969482422 68.91999816894531,82.86000061035156 69.45999908447266,91.5 C69.31999969482422,93.19000244140625 69.37999725341797,94.88999938964844 69.63999938964844,96.56999969482422 C69.55999755859375,97.91999816894531 69.44999694824219,104.77999877929688 69.5,106.11000061035156 C69.41999816894531,106.77999877929688 69.4800033569336,107.44999694824219 69.6500015258789,108.0999984741211 C69.61000061035156,108.31999969482422 69.63999938964844,108.55000305175781 69.73999786376953,108.75 C69.73999786376953,108.75 77.76000213623047,107.62999725341797 77.76000213623047,107.62999725341797 C78.29000091552734,107.55999755859375 78.41999816894531,106.58999633789062 78.4800033569336,106.05000305175781 C78.38999938964844,105.37999725341797 78.20999908447266,104.7300033569336 77.94000244140625,104.12000274658203 C76.20999908447266,98.45999908447266 77.19999694824219,93.08999633789062 77.0999984741211,86.66999816894531 C77,79.30999755859375 73.58000183105469,73.08999633789062 69.16000366210938,68.3499984741211 C69.16000366210938,68.3499984741211 66.18000030517578,67.16000366210938 66.18000030517578,67.16000366210938 C66.18000030517578,67.16000366210938 66.12000274658203,66.7699966430664 66.12000274658203,66.7699966430664 C66.18000030517578,66.2300033569336 66.45999908447266,66.31999969482422 67.08000183105469,65.95999908447266 C67.33999633789062,65.91999816894531 69.77999877929688,65.18000030517578 70.05000305175781,65.13999938964844 C75.77999877929688,63 82.16000366210938,55.939998626708984 83.70999908447266,49.81999969482422 C84.47000122070312,46.18000030517578 84.94999694824219,42.47999954223633 85.11000061035156,38.7599983215332 C85.23999786376953,37.79999923706055 85.30999755859375,33.5099983215332 85.44000244140625,32.54999923706055 C85.44000244140625,32.54999923706055 84.13999938964844,25.219999313354492 84.13999938964844,25.219999313354492 C84.0999984741211,24.950000762939453 84.02999877929688,24.690000534057617 83.9000015258789,24.450000762939453 C83.73999786376953,24.040000915527344 83.63999938964844,23.610000610351562 83.58999633789062,23.15999984741211 C80.33999633789062,17.18000030517578 74.73999786376953,16.489999771118164 68.04000091552734,17.43000030517578 C68.04000091552734,17.43000030517578 63.83000183105469,18.020000457763672 63.83000183105469,18.020000457763672 C60.2599983215332,18.43000030517578 56.720001220703125,19.110000610351562 53.25,20.049999237060547 C52.7400016784668,20.260000228881836 51.689998626708984,20.399999618530273 51.38999938964844,21.110000610351562 C50.599998474121094,24.040000915527344 50.34000015258789,27.020000457763672 49.68000030517578,29.93000030517578 C49.68000030517578,29.93000030517578 46.95000076293945,50.560001373291016 46.95000076293945,50.560001373291016 C46.95000076293945,50.560001373291016 46.7400016784668,52.869998931884766 46.7400016784668,52.869998931884766 C46.45000076293945,57.470001220703125 45.630001068115234,62.13999938964844 45.34000015258789,66.73999786376953 C44.529998779296875,77.18000030517578 44.130001068115234,87.68000030517578 43.33000183105469,98.25 C43.33000183105469,98.25 42.97999954223633,103.4000015258789 42.97999954223633,103.4000015258789 C42.91999816894531,103.72000122070312 42.869998931884766,104.04000091552734 42.849998474121094,104.36000061035156 C42.72999954223633,105.12000274658203 42.709999084472656,105.87999725341797 42.77000045776367,106.63999938964844 C42.77000045776367,106.63999938964844 42.41999816894531,111.79000091552734 42.41999816894531,111.79000091552734z M8.09000015258789,65 C8.210000038146973,62.029998779296875 8.239999771118164,59.349998474121094 8.079999923706055,56.29999923706055 C8.260000228881836,49.029998779296875 8.300000190734863,41.650001525878906 8.75,34.349998474121094 C8.75,34.349998474121094 8.880000114440918,32.45000076293945 8.880000114440918,32.45000076293945 C9.149999618530273,32.11000061035156 9.489999771118164,31.829999923706055 9.880000114440918,31.639999389648438 C10.270000457763672,31.440000534057617 10.710000038146973,31.34000015258789 11.140000343322754,31.329999923706055 C11.140000343322754,31.329999923706055 14.6899995803833,30.84000015258789 14.6899995803833,30.84000015258789 C16.799999237060547,30.540000915527344 18.780000686645508,30.389999389648438 20.299999237060547,31.649999618530273 C21.93000030517578,32.7599983215332 23.530000686645508,40.310001373291016 23.8799991607666,42.810001373291016 C24.219999313354492,44.2400016784668 24.65999984741211,49.27000045776367 24.729999542236328,49.79999923706055 C24.729999542236328,49.79999923706055 24.399999618530273,54.13999938964844 24.399999618530273,54.13999938964844 C23.65999984741211,56.52000045776367 21.670000076293945,58.540000915527344 20.010000228881836,60.11000061035156 C17.190000534057617,62.91999816894531 14.15999984741211,64.29000091552734 10.649999618530273,65.98999786376953 C10.520000457763672,66.01000213623047 10.270000457763672,66.18000030517578 10.140000343322754,66.19999694824219 C9.59000015258789,66.38999938964844 9.020000457763672,66.51000213623047 8.449999809265137,66.56999969482422 C8.050000190734863,66.62000274658203 7.920000076293945,66.62999725341797 8.09000015258789,65 C8.09000015258789,65 8.09000015258789,65 8.09000015258789,65z M7.519999980926514,76.20999908447266 C7.519999980926514,76.20999908447266 7.550000190734863,75.4000015258789 7.550000190734863,75.4000015258789 C7.550000190734863,75.4000015258789 8.130000114440918,74.79000091552734 8.130000114440918,74.79000091552734 C8.239999771118164,74.63999938964844 11.829999923706055,73.45999908447266 13.109999656677246,73.01000213623047 C13.109999656677246,73.01000213623047 18.360000610351562,72.2699966430664 18.360000610351562,72.2699966430664 C18.809999465942383,72.61000061035156 20.90999984741211,73.25 21.209999084472656,73.4800033569336 C29.110000610351562,76.26000213623047 29.950000762939453,82.18000030517578 30.450000762939453,90.55000305175781 C30.59000015258789,92.16000366210938 30.59000015258789,93.76000213623047 30.459999084472656,95.37000274658203 C30.06999969482422,100.25 28.920000076293945,103.5 23.829999923706055,105.41999816894531 C18.739999771118164,107.33999633789062 13.550000190734863,109.55000305175781 8.550000190734863,110.25 C8.550000190734863,110.25 7.369999885559082,110.41000366210938 7.369999885559082,110.41000366210938 C6.940000057220459,110.19999694824219 6.989999771118164,109.66000366210938 6.940000057220459,109.2699966430664 C6.940000057220459,109.2699966430664 7.519999980926514,76.20999908447266 7.519999980926514,76.20999908447266z M2.0399999618530273,118.2699966430664 C3.75,118.02999877929688 5.210000038146973,117.94999694824219 6.920000076293945,117.70999908447266 C14.020000457763672,116.70999908447266 21.149999618530273,113.97000122070312 28.170000076293945,112.44999694824219 C36.720001220703125,107.48999786376953 37.79999923706055,99.83999633789062 38.380001068115234,91.58000183105469 C38.790000915527344,85.88999938964844 36.38999938964844,71.75 31.670000076293945,68.66000366210938 C30.049999237060547,67.7699966430664 28.360000610351562,66.97000122070312 26.639999389648438,66.27999877929688 C25.959999084472656,66.23999786376953 22.639999389648438,65.5 22.59000015258789,65.11000061035156 C28.270000457763672,61.630001068115234 32.650001525878906,56.59000015258789 33.08000183105469,50.099998474121094 C32.95000076293945,49.18000030517578 33.189998626708984,43.25 33.08000183105469,42.459999084472656 C33.08000183105469,42.459999084472656 33.08000183105469,41.52000045776367 33.08000183105469,41.52000045776367 C32.540000915527344,37.709999084472656 31.06999969482422,31.06999969482422 28.860000610351562,28.700000762939453 C28.520000457763672,28.209999084472656 26.510000228881836,26.219999313354492 25.889999389648438,25.639999389648438 C24.540000915527344,24.6200008392334 22.90999984741211,23.520000457763672 21.139999389648438,23.360000610351562 C19.809999465942383,23.309999465942383 18.469999313354492,23.40999984741211 17.15999984741211,23.649999618530273 C17.15999984741211,23.649999618530273 14.800000190734863,23.979999542236328 14.800000190734863,23.979999542236328 C11.90999984741211,24.389999389648438 9.4399995803833,25 6.460000038146973,25.690000534057617 C6.070000171661377,25.739999771118164 2.4200000762939453,26.530000686645508 2.359999895095825,27.06999969482422 C2.359999895095825,27.06999969482422 1.1699999570846558,106.33000183105469 1.1699999570846558,106.33000183105469 C0.9200000166893005,109.30999755859375 1.190000057220459,112.22000122070312 0.9599999785423279,115.33999633789062 C0.9399999976158142,116.1500015258789 0.38999998569488525,117.02999877929688 0.3700000047683716,117.83999633789062 C0.28999999165534973,118.25 0.3199999928474426,118.37999725341797 0.7300000190734863,118.44999694824219 C0.7300000190734863,118.44999694824219 2.0399999618530273,118.2699966430664 2.0399999618530273,118.2699966430664z"></path></g></g></g><g transform="matrix(1,0,0,1,0,0)" opacity="1" style="display: block;"><path fill="rgb(0,0,0)" fill-opacity="0" d=" M268,0 C268,0 0,0 0,0 C0,0 0,158 0,158 C0,158 268,158 268,158 C268,158 268,0 268,0z"></path></g></g><g clip-path="url(#__lottie_element_143)" transform="matrix(1,0,0,1,317.65899658203125,0.15800000727176666)" opacity="1" style="display: block;"><g transform="matrix(1.333299994468689,0,0,1.333299994468689,0,0)" opacity="1" style="display: block;"><g opacity="1" transform="matrix(1,0,0,1,0,0)"><g opacity="1" transform="matrix(1,0,0,1,0,0)"><path fill="rgb(255,255,255)" fill-opacity="1" d=" M53.619998931884766,98.95999908447266 C56.369998931884766,99.3499984741211 59.15999984741211,99.30999755859375 61.90999984741211,98.86000061035156 C62.09000015258789,98.61000061035156 62.189998626708984,98.31999969482422 62.20000076293945,98.0199966430664 C62.290000915527344,97.73999786376953 61.880001068115234,96.72000122070312 61.86000061035156,96.58999633789062 C61.15999984741211,93.33999633789062 60.779998779296875,90.02999877929688 60.7400016784668,86.69999694824219 C61.06999969482422,73.79000091552734 61.79999923706055,60.810001373291016 62.689998626708984,48.08000183105469 C63.70000076293945,34.27000045776367 63.040000915527344,27.65999984741211 63.189998626708984,25.889999389648438 C63.88999938964844,26.059999465942383 65.26000213623047,32.97999954223633 65.81999969482422,34.11000061035156 C66.19000244140625,35.79999923706055 67.06999969482422,37.279998779296875 67.44000244140625,38.970001220703125 C67.77999877929688,40.400001525878906 68.18000030517578,43.290000915527344 68.44000244140625,43.25 C68.44000244140625,43.25 71.55999755859375,57.83000183105469 71.55999755859375,57.83000183105469 C71.48999786376953,58.279998779296875 71.55999755859375,58.72999954223633 71.75,59.13999938964844 C75.1500015258789,74.75 78.33999633789062,84.08999633789062 81.05999755859375,92.95999908447266 C80.9000015258789,95.66000366210938 82.62999725341797,95.55000305175781 83.55000305175781,95.41999816894531 C83.55000305175781,95.41999816894531 91.56999969482422,94.30000305175781 91.56999969482422,94.30000305175781 C92.08999633789062,94.2300033569336 92.26000213623047,93.52999877929688 92.19000244140625,93 C92.2300033569336,92.31999969482422 91.33999633789062,83.19999694824219 91.54000091552734,80.76000213623047 C92.52999877929688,65.87999725341797 94.02999877929688,50.779998779296875 95.68000030517578,35.79999923706055 C96.08999633789062,31.989999771118164 96.75,28.149999618530273 97.0199966430664,24.360000610351562 C97.41000366210938,18.540000915527344 96.91000366210938,13.109999656677246 97.31999969482422,7.429999828338623 C97.55000305175781,4.309999942779541 98.55000305175781,2.8299999237060547 98.55000305175781,1.8899999856948853 C98.55000305175781,1.8899999856948853 98.58999633789062,1.2100000381469727 98.58999633789062,1.2100000381469727 C98.76000213623047,0.5099999904632568 98.58000183105469,0.15000000596046448 97.2699966430664,0.33000001311302185 C94.7699966430664,0.6800000071525574 92.2699966430664,1.9700000286102295 89.5199966430664,2.490000009536743 C89.5199966430664,2.490000009536743 89.33000183105469,6.800000190734863 89.33000183105469,6.800000190734863 C88.66999816894531,15.470000267028809 88.55000305175781,24.209999084472656 88.01000213623047,32.72999954223633 C88.01000213623047,32.72999954223633 86.87000274658203,48.439998626708984 86.87000274658203,48.439998626708984 C86.01000213623047,61.43000030517578 84.77999877929688,77.43000030517578 84.25,77.5 C82.91000366210938,72.7300033569336 80.2699966430664,59.68000030517578 78.2300033569336,48.97999954223633 C77.43000030517578,45.20000076293945 75.58999633789062,41.709999084472656 74.93000030517578,37.91999816894531 C74.93000030517578,37.91999816894531 70,16.219999313354492 70,16.219999313354492 C68.79000091552734,13.3100004196167 68.2699966430664,4.800000190734863 66.30000305175781,5.079999923706055 C66.30000305175781,5.079999923706055 58.0099983215332,6.25 58.0099983215332,6.25 C57.529998779296875,6.010000228881836 57.02000045776367,5.849999904632568 56.47999954223633,5.789999961853027 C56.209999084472656,5.829999923706055 55.70000076293945,6.039999961853027 55.7599983215332,6.429999828338623 C55.70000076293945,6.980000019073486 55.849998474121094,7.079999923706055 56.16999816894531,7.440000057220459 C56.16999816894531,7.440000057220459 55.029998779296875,48.88999938964844 55.029998779296875,48.88999938964844 C55.029998779296875,48.88999938964844 53.619998931884766,98.95999908447266 53.619998931884766,98.95999908447266z M8.390000343322754,66.16999816894531 C8.390000343322754,66.16999816894531 8.449999809265137,64.69000244140625 8.449999809265137,64.69000244140625 C8.680000305175781,61.56999969482422 8.390000343322754,58.529998779296875 8.619999885559082,55.40999984741211 C9.069999694824219,48.11000061035156 11.319999694824219,40.279998779296875 12.710000038146973,32.97999954223633 C14.359999656677246,26.579999923706055 15.640000343322754,21.440000534057617 23.100000381469727,19.190000534057617 C25.299999237060547,18.610000610351562 26.799999237060547,18.799999237060547 29.040000915527344,17.549999237060547 C29.040000915527344,17.549999237060547 30.309999465942383,18.040000915527344 30.309999465942383,18.040000915527344 C36.31999969482422,18.809999465942383 36.900001525878906,19.1299991607666 39.2599983215332,29.25 C39.290000915527344,39.970001220703125 39.47999954223633,50.810001373291016 38.720001220703125,61.63999938964844 C38.2400016784668,69.22000122070312 37.380001068115234,76.7699966430664 36.130001068115234,84.26000213623047 C33.709999084472656,91.83999633789062 30.8700008392334,94.51000213623047 20.489999771118164,95.97000122070312 C18.8700008392334,95.93000030517578 8.760000228881836,87.83999633789062 8.65999984741211,80.4800033569336 C8.65999984741211,80.4800033569336 8.390000343322754,66.16999816894531 8.390000343322754,66.16999816894531z M3.359999895095825,90.47000122070312 C3.2100000381469727,90.36000061035156 5.639999866485596,94.30999755859375 6.820000171661377,96.0199966430664 C10.579999923706055,101.79000091552734 16.149999618530273,104.22000122070312 23.510000228881836,103.19000244140625 C40.470001220703125,100.80000305175781 45.400001525878906,79.5999984741211 46.369998931884766,66.45999908447266 C46.369998931884766,66.45999908447266 46.40999984741211,65.79000091552734 46.40999984741211,65.79000091552734 C46.40999984741211,60.02000045776367 46.220001220703125,49.189998626708984 46.220001220703125,49.189998626708984 C46.220001220703125,49.189998626708984 46.88999938964844,33.0099983215332 46.88999938964844,33.0099983215332 C46.88999938964844,33.0099983215332 45.959999084472656,22.549999237060547 45.959999084472656,22.549999237060547 C43.79999923706055,13.869999885559082 40.77000045776367,8.529999732971191 27.889999389648438,10.34000015258789 C20.139999389648438,11.430000305175781 11.329999923706055,14.550000190734863 8.020000457763672,23.459999084472656 C3.6600000858306885,33.459999084472656 1.6799999475479126,47.0099983215332 0.9200000166893005,57.84000015258789 C0.2199999988079071,69.06999969482422 -0.3499999940395355,80.2699966430664 3.359999895095825,90.47000122070312 C3.359999895095825,90.47000122070312 3.359999895095825,90.47000122070312 3.359999895095825,90.47000122070312z"></path></g></g></g><g transform="matrix(1,0,0,1,0,0)" opacity="1" style="display: block;"><path fill="rgb(0,0,0)" fill-opacity="0" d=" M132,0 C132,0 0,0 0,0 C0,0 0,138 0,138 C0,138 132,138 132,138 C132,138 132,0 132,0z"></path></g></g></g><g clip-path="url(#__lottie_element_39)" transform="matrix(0.9999955892562866,0,0,0.9999955892562866,60.639007568359375,190.12442016601562)" opacity="0.999991207639098" style="display: block;"><g clip-path="url(#__lottie_element_160)" transform="matrix(1,0,0,1,11.362000465393066,4.875999927520752)" opacity="1" style="display: block;"><g transform="matrix(1.333299994468689,0,0,1.333299994468689,0,0)" opacity="1" style="display: block;"><g opacity="1" transform="matrix(1,0,0,1,0,0)"><g opacity="1" transform="matrix(1,0,0,1,0,0)"><g opacity="1" transform="matrix(1,0,0,1,0,0)"><path fill="rgb(255,255,255)" fill-opacity="1" d=" M290.92999267578125,78.88999938964844 C290.7900085449219,81.83999633789062 290.80999755859375,84.79000091552734 290.9700012207031,87.7300033569336 C290.989990234375,87.86000061035156 291.1400146484375,87.9800033569336 291.17999267578125,88.23999786376953 C291.4800109863281,97.05000305175781 295.29998779296875,98.52999877929688 301.739990234375,97.62000274658203 C315.4100036621094,95.69999694824219 321.7699890136719,86.48999786376953 322.75,73.4800033569336 C323.1600036621094,67.79000091552734 321.82000732421875,63.029998779296875 319.9700012207031,58.459999084472656 C319.9700012207031,58.459999084472656 319.760009765625,57.95000076293945 319.760009765625,57.95000076293945 C317.55999755859375,52.77000045776367 314.9100036621094,47.2400016784668 311.17999267578125,43.61000061035156 C309.989990234375,42.630001068115234 308.8599853515625,41.56999969482422 307.7900085449219,40.459999084472656 C306.1000061035156,38.709999084472656 304.7300109863281,36.68000030517578 303.7300109863281,34.459999084472656 C303.7300109863281,34.459999084472656 303.3500061035156,33.709999084472656 303.3500061035156,33.709999084472656 C301.8399963378906,30.56999969482422 300.9200134277344,27.889999389648438 301.25,23.549999237060547 C301.5799865722656,18.280000686645508 304.7699890136719,12.34000015258789 308.29998779296875,10.770000457763672 C308.8399963378906,10.550000190734863 309.4100036621094,10.369999885559082 309.9800109863281,10.260000228881836 C311.44000244140625,10.0600004196167 312.9200134277344,10.449999809265137 314.1000061035156,11.34000015258789 C315.2799987792969,12.229999542236328 316.05999755859375,13.550000190734863 316.2699890136719,15.010000228881836 C316.510009765625,16.3700008392334 316.6199951171875,17.739999771118164 316.5799865722656,19.1200008392334 C316.6700134277344,20.190000534057617 316.6400146484375,21.280000686645508 316.5,22.350000381469727 C316.5,22.350000381469727 316.1700134277344,25.75 316.1700134277344,25.75 C316.30999755859375,25.969999313354492 316.5199890136719,26.1299991607666 316.7699890136719,26.200000762939453 C317.30999755859375,26.25 319.4200134277344,25.969999313354492 319.8299865722656,26.040000915527344 C320.2799987792969,26.040000915527344 320.7300109863281,26.059999465942383 321.17999267578125,26.110000610351562 C321.7300109863281,25.979999542236328 322.25,25.729999542236328 322.69000244140625,25.3700008392334 C322.69000244140625,25.3700008392334 322.82000732421875,23.469999313354492 322.82000732421875,23.469999313354492 C323.2300109863281,18.719999313354492 323.3399963378906,9.989999771118164 320.2900085449219,7.340000152587891 C317.07000732421875,4.440000057220459 314.3900146484375,3.4800000190734863 310.17999267578125,4.070000171661377 C310.17999267578125,4.070000171661377 308.4700012207031,4.309999942779541 308.4700012207031,4.309999942779541 C306.8900146484375,5.46999979019165 305.07000732421875,4.920000076293945 303.6199951171875,6.059999942779541 C298.3299865722656,10.420000076293945 295.75,16.81999969482422 295.1499938964844,24.010000228881836 C295.1499938964844,24.010000228881836 294.8999938964844,27.93000030517578 294.8999938964844,27.93000030517578 C294.739990234375,30.110000610351562 294.7799987792969,32.29999923706055 295.0199890136719,34.47999954223633 C296.45001220703125,43.65999984741211 303.9800109863281,46.7599983215332 308.2099914550781,53 C308.70001220703125,53.599998474121094 311.07000732421875,57.15999984741211 311.95001220703125,58.63999938964844 C311.95001220703125,58.63999938964844 312.1400146484375,59.02000045776367 312.1400146484375,59.02000045776367 C312.1400146484375,59.02000045776367 313.5199890136719,62.18000030517578 313.5199890136719,62.18000030517578 C313.5199890136719,62.18000030517578 313.5899963378906,62.70000076293945 313.5899963378906,62.70000076293945 C314.5899963378906,66.98999786376953 316.20001220703125,72.66000366210938 315.8699951171875,77.93000030517578 C315.8699951171875,77.93000030517578 315.8299865722656,78.61000061035156 315.8299865722656,78.61000061035156 C315.1499938964844,89.02999877929688 305.32000732421875,91.62000274658203 302.82000732421875,91.97000122070312 C296.7699890136719,92.81999969482422 296.9599914550781,83.66999816894531 297.4100036621094,77.30999755859375 C297.4100036621094,77.30999755859375 297.54998779296875,75.41999816894531 297.54998779296875,75.41999816894531 C297.54998779296875,75.41999816894531 293.30999755859375,75.75 293.30999755859375,75.75 C292.7799987792969,75.81999969482422 291.4599914550781,76.01000213623047 291.30999755859375,76.83000183105469 C291.30999755859375,76.83000183105469 290.92999267578125,78.88999938964844 290.92999267578125,78.88999938964844z M283.07000732421875,26.780000686645508 C283.07000732421875,26.780000686645508 282.8999938964844,29.350000381469727 282.8999938964844,29.350000381469727 C282.75,31.110000610351562 282.8399963378906,32.709999084472656 285.07000732421875,32.400001525878906 C286.25,32.22999954223633 287.42999267578125,32.06999969482422 287.80999755859375,30.940000534057617 C287.7900085449219,30.809999465942383 288.25,29.270000457763672 288.29998779296875,28.719999313354492 C288.32000732421875,27.920000076293945 288.8999938964844,21.530000686645508 289.1700134277344,19.6200008392334 C289.1700134277344,19.6200008392334 289.2900085449219,16.65999984741211 289.2900085449219,16.65999984741211 C289.2900085449219,16.65999984741211 290.8599853515625,5.840000152587891 290.8599853515625,5.840000152587891 C290.8599853515625,5.840000152587891 291.04998779296875,4.340000152587891 291.04998779296875,4.340000152587891 C291.1099853515625,2.859999895095825 291.29998779296875,0.41999998688697815 289.4599914550781,0.6800000071525574 C286.57000732421875,1.090000033378601 283.8500061035156,1.7400000095367432 283.1300048828125,12.829999923706055 C282.80999755859375,17.469999313354492 282.7799987792969,22.139999389648438 283.07000732421875,26.780000686645508 C283.07000732421875,26.780000686645508 283.07000732421875,26.780000686645508 283.07000732421875,26.780000686645508z M268.989990234375,101.1500015258789 C269.57000732421875,101.22000122070312 270.1600036621094,101.2300033569336 270.739990234375,101.16999816894531 C270.95001220703125,101.16000366210938 271.1499938964844,101.06999969482422 271.29998779296875,100.93000030517578 C271.45001220703125,100.79000091552734 271.54998779296875,100.58999633789062 271.57000732421875,100.37999725341797 C271.79998779296875,99.25 271.95001220703125,98.11000061035156 272.0199890136719,96.95999908447266 C272.05999755859375,96.27999877929688 272.1400146484375,94.93000030517578 271.42999267578125,94.62999725341797 C263.2799987792969,95.77999877929688 255.14999389648438,96.12000274658203 247.05999755859375,96.72000122070312 C247.05999755859375,96.72000122070312 244.3000030517578,97.11000061035156 244.3000030517578,97.11000061035156 C244,96.88999938964844 243.89999389648438,94.3499984741211 244.0399932861328,93.38999938964844 C244.13999938964844,89.3499984741211 244.24000549316406,85.30999755859375 244.4600067138672,81.12999725341797 C244.4600067138672,81.12999725341797 244.75999450683594,74.6500015258789 244.75999450683594,74.6500015258789 C244.8800048828125,73.55999755859375 245.25999450683594,70.55999755859375 245.25999450683594,70.55999755859375 C245.25999450683594,70.55999755859375 245.7100067138672,69.95999908447266 245.7100067138672,69.95999908447266 C245.7100067138672,69.95999908447266 247.80999755859375,69.66000366210938 247.80999755859375,69.66000366210938 C250.17999267578125,69.33000183105469 252.4499969482422,69.27999877929688 254.67999267578125,68.97000122070312 C258.2300109863281,68.47000122070312 261.7200012207031,67.58000183105469 265.2699890136719,67.08000183105469 C266.42999267578125,66.77999877929688 268.0400085449219,66.68000030517578 268.0799865722656,65.06999969482422 C268.30999755859375,62.88999938964844 268.010009765625,60.790000915527344 268.239990234375,58.61000061035156 C268.239990234375,58.61000061035156 264.57000732421875,59.130001068115234 264.57000732421875,59.130001068115234 C264.44000244140625,59.150001525878906 263.54998779296875,59.540000915527344 263.4200134277344,59.560001373291016 C262.3900146484375,59.84000015258789 257.04998779296875,60.9900016784668 255.8699951171875,61.15999984741211 C255.74000549316406,61.18000030517578 252.33999633789062,61.779998779296875 251.16000366210938,61.95000076293945 C250.3699951171875,62.060001373291016 246.92999267578125,62.40999984741211 246.13999938964844,62.52000045776367 C246.13999938964844,62.52000045776367 245.02000427246094,62.13999938964844 245.02000427246094,62.13999938964844 C245.02000427246094,62.13999938964844 246.61000061035156,21.969999313354492 246.61000061035156,21.969999313354492 C246.9499969482422,21.520000457763672 247.2899932861328,21.06999969482422 247.67999267578125,21.020000457763672 C247.67999267578125,21.020000457763672 266.2200012207031,18.40999984741211 266.2200012207031,18.40999984741211 C267.5299987792969,18.229999542236328 273.55999755859375,17.239999771118164 274.8800048828125,17.059999465942383 C275.1199951171875,15.979999542236328 275.2699890136719,14.890000343322754 275.3500061035156,13.779999732971191 C275.3500061035156,13.779999732971191 275.5899963378906,9.720000267028809 275.5899963378906,9.720000267028809 C275.5899963378906,9.720000267028809 275.1400146484375,9.380000114440918 275.1400146484375,9.380000114440918 C273.75,10.130000114440918 272.20001220703125,10.579999923706055 270.6300048828125,10.6899995803833 C269.8800048828125,10.789999961853027 269.1199951171875,10.8100004196167 268.3599853515625,10.739999771118164 C268.3599853515625,10.739999771118164 254.5500030517578,12.680000305175781 254.5500030517578,12.680000305175781 C252.19000244140625,12.670000076293945 249.85000610351562,12.869999885559082 247.52999877929688,13.270000457763672 C247.52999877929688,13.270000457763672 241.8699951171875,14.0600004196167 241.8699951171875,14.0600004196167 C241.74000549316406,14.010000228881836 241.60000610351562,13.979999542236328 241.4600067138672,13.979999542236328 C241.38999938964844,13.989999771118164 241.3300018310547,14.039999961853027 241.2899932861328,14.09000015258789 C241.25,14.140000343322754 241.22000122070312,14.220000267028809 241.22999572753906,14.289999961853027 C241.22999572753906,14.289999961853027 240.8000030517578,16.889999389648438 240.8000030517578,16.889999389648438 C237.66000366210938,101.38999938964844 236.1199951171875,104.69999694824219 239.0800018310547,104.81999969482422 C240.00999450683594,104.79000091552734 240.94000244140625,104.69999694824219 241.86000061035156,104.55999755859375 C241.86000061035156,104.55999755859375 258.2900085449219,102.25 258.2900085449219,102.25 C259.0899963378906,102.31999969482422 259.9100036621094,102.3499984741211 260.7099914550781,102.30999755859375 C260.7099914550781,102.30999755859375 268.989990234375,101.1500015258789 268.989990234375,101.1500015258789z M221.5,106.61000061035156 C224.13999938964844,106.37999725341797 225.08999633789062,106.37999725341797 227.32000732421875,106.06999969482422 C227.32000732421875,106.06999969482422 228.77000427246094,105.86000061035156 228.77000427246094,105.86000061035156 C228.9600067138672,105.79000091552734 229.1300048828125,105.68000030517578 229.25,105.5199966430664 C229.3699951171875,105.36000061035156 229.44000244140625,105.16000366210938 229.4499969482422,104.95999908447266 C229.19000244140625,104.38999938964844 229.05999755859375,103.7699966430664 229.05999755859375,103.13999938964844 C228.6300048828125,100.37000274658203 228.4499969482422,97.56999969482422 228.5500030517578,94.7699966430664 C228.47999572753906,93.30999755859375 228.6699981689453,91.80000305175781 228.7100067138672,90.18000030517578 C228.7100067138672,90.18000030517578 229.13999938964844,84.62999725341797 229.13999938964844,84.62999725341797 C229.27999877929688,82.73999786376953 229.42999267578125,80.97000122070312 229.4499969482422,79.22000122070312 C229.35000610351562,74.68000030517578 228.9499969482422,69.91000366210938 229.3699951171875,65.29000091552734 C229.4499969482422,63.939998626708984 229.8000030517578,62.68000030517578 229.89999389648438,61.459999084472656 C230.10000610351562,58.08000183105469 230.02999877929688,54.7400016784668 230.33999633789062,51.209999084472656 C230.63999938964844,47.27000045776367 231.1699981689453,43.349998474121094 231.91000366210938,39.459999084472656 C231.91000366210938,39.459999084472656 233.07000732421875,22.950000762939453 233.07000732421875,22.950000762939453 C233.32000732421875,19.969999313354492 234.80999755859375,17.209999084472656 235.0399932861328,14.09000015258789 C234.97000122070312,13.819999694824219 234.85000610351562,13.5600004196167 234.6699981689453,13.34000015258789 C232.85000610351562,13.210000038146973 231,13.289999961853027 229.1999969482422,13.569999694824219 C229.1999969482422,13.569999694824219 228.02000427246094,13.739999771118164 228.02000427246094,13.739999771118164 C228.02000427246094,13.739999771118164 226.72000122070312,14.989999771118164 226.72000122070312,14.989999771118164 C226.72000122070312,14.989999771118164 226.22999572753906,21.09000015258789 225.92999267578125,23.68000030517578 C225.5399932861328,28.559999465942383 224.77000427246094,33.5 224.3800048828125,38.380001068115234 C223.63999938964844,49.34000015258789 223.02000427246094,60.15999984741211 222.52000427246094,70.94999694824219 C222.08999633789062,81.19999694824219 222.1300048828125,91.11000061035156 221.52999877929688,101.11000061035156 C221.52999877929688,101.11000061035156 221.0399932861328,106.13999938964844 221.0399932861328,106.13999938964844 C221.05999755859375,106.2699966430664 221.3699951171875,106.62999725341797 221.5,106.61000061035156 C221.5,106.61000061035156 221.5,106.61000061035156 221.5,106.61000061035156z M185.77000427246094,110.83000183105469 C185.83999633789062,111.36000061035156 186.38999938964844,111.41999816894531 186.77999877929688,111.36000061035156 C187.08999633789062,111.29000091552734 187.38999938964844,111.20999908447266 187.67999267578125,111.0999984741211 C188.2100067138672,111.02999877929688 192.83999633789062,110.63999938964844 193.5,110.55000305175781 C193.77000427246094,110.51000213623047 200.75,109.66999816894531 203.3800048828125,109.30000305175781 C204.8300018310547,109.0999984741211 211.89999389648438,107.95999908447266 213.35000610351562,107.76000213623047 C213.5500030517578,107.72000122070312 213.74000549316406,107.5999984741211 213.86000061035156,107.44000244140625 C213.99000549316406,107.27999877929688 214.0399932861328,107.06999969482422 214.02999877929688,106.86000061035156 C214.41000366210938,105.23999786376953 214.67999267578125,103.58999633789062 214.80999755859375,101.93000030517578 C214.80999755859375,100.98999786376953 214.75999450683594,100.58999633789062 214.16000366210938,100.13999938964844 C214.16000366210938,100.13999938964844 211.27000427246094,100.55000305175781 211.27000427246094,100.55000305175781 C207.05999755859375,101.13999938964844 202.88999938964844,101.98999786376953 198.67999267578125,102.58000183105469 C198.67999267578125,102.58000183105469 194.8699951171875,103.12000274658203 194.8699951171875,103.12000274658203 C194.8699951171875,103.12000274658203 194.16000366210938,102.81999969482422 194.16000366210938,102.81999969482422 C194.16000366210938,102.81999969482422 195.60000610351562,57.709999084472656 195.60000610351562,57.709999084472656 C195.7899932861328,56.209999084472656 195.72999572753906,54.869998931884766 195.7899932861328,53.38999938964844 C196.4499969482422,43.779998779296875 198.16000366210938,34.02000045776367 198.83999633789062,24.540000915527344 C198.83999633789062,24.540000915527344 199.3300018310547,17.5 199.3300018310547,17.5 C198.41000366210938,17.6299991607666 193.77000427246094,18.020000457763672 192.85000610351562,18.149999618530273 C192.85000610351562,18.149999618530273 190.47999572753906,18.479999542236328 190.47999572753906,18.479999542236328 C190,23.639999389648438 190.05999755859375,28.860000610351562 190.08999633789062,33.81999969482422 C189.4499969482422,41.689998626708984 188.83999633789062,49.68000030517578 188.35000610351562,57.65999984741211 C187.72999572753906,65.66000366210938 187.24000549316406,73.62999725341797 187.1300048828125,81.41999816894531 C186.9600067138672,83.05000305175781 186.77999877929688,95.1500015258789 186.74000549316406,96.76000213623047 C186.74000549316406,96.76000213623047 185.77000427246094,110.83000183105469 185.77000427246094,110.83000183105469z M152.9499969482422,68.12999725341797 C153.0399932861328,67.8499984741211 153.02000427246094,65.69999694824219 153.08999633789062,65.29000091552734 C153.1300048828125,64.61000061035156 153.36000061035156,62.43000030517578 153.33999633789062,62.29999923706055 C153.39999389648438,61.7599983215332 154.1999969482422,56.959999084472656 154.1300048828125,56.43000030517578 C154.4199981689453,55.59000015258789 154.86000061035156,50.15999984741211 155.16000366210938,48.5099983215332 C155.16000366210938,48.5099983215332 155.30999755859375,45.79999923706055 155.30999755859375,45.79999923706055 C155.30999755859375,45.79999923706055 156.22999572753906,37.099998474121094 156.22999572753906,37.099998474121094 C156.22999572753906,37.099998474121094 156.27000427246094,36.41999816894531 156.27000427246094,36.41999816894531 C156.47999572753906,33.16999816894531 156.5399932861328,32.619998931884766 160.49000549316406,32.06999969482422 C166.13999938964844,31.280000686645508 173.4199981689453,30.65999984741211 174.61000061035156,37.20000076293945 C175.16000366210938,39.2599983215332 175.5500030517578,41.349998474121094 175.75999450683594,43.470001220703125 C175.77999877929688,43.599998474121094 175.75,47.220001220703125 175.83999633789062,48.81999969482422 C175.3000030517578,55.459999084472656 172.75,63.060001373291016 165.5399932861328,65.1500015258789 C165.5399932861328,65.1500015258789 154.72000122070312,68.27999877929688 154.72000122070312,68.27999877929688 C154.72000122070312,68.27999877929688 154.05999755859375,68.37000274658203 154.05999755859375,68.37000274658203 C153.39999389648438,68.45999908447266 153,68.5199966430664 152.9499969482422,68.12999725341797 C152.9499969482422,68.12999725341797 152.9499969482422,68.12999725341797 152.9499969482422,68.12999725341797z M140.6199951171875,118.6500015258789 C141.0800018310547,119.16999816894531 141.47999572753906,119.73999786376953 141.8000030517578,120.36000061035156 C141.8000030517578,120.36000061035156 150.2100067138672,119.18000030517578 150.2100067138672,119.18000030517578 C150.3699951171875,118.91999816894531 150.4600067138672,118.63999938964844 150.5,118.33999633789062 C150.5,118.33999633789062 150.5500030517578,117.79000091552734 150.5500030517578,117.79000091552734 C150.5500030517578,117.79000091552734 149.5500030517578,112.56999969482422 149.5500030517578,112.56999969482422 C149.5500030517578,112.56999969482422 149.83999633789062,106.08999633789062 150.02000427246094,103.5199966430664 C150.02000427246094,103.5199966430664 150.17999267578125,100.81999969482422 150.17999267578125,100.81999969482422 C150.1699981689453,95.05000305175781 150.13999938964844,89.16000366210938 150.5500030517578,83.47000122070312 C150.77999877929688,82.4800033569336 150.9600067138672,81.47000122070312 151.07000732421875,80.44999694824219 C151.07000732421875,80.44999694824219 151.17999267578125,79.36000061035156 151.17999267578125,79.36000061035156 C151.22000122070312,78.68000030517578 151.38999938964844,77.98999786376953 152.0500030517578,77.9000015258789 C153.3699951171875,77.72000122070312 156.33999633789062,78.9000015258789 157.33999633789062,79.30000305175781 C164.77999877929688,82.68000030517578 167.1199951171875,89.72000122070312 167.66000366210938,98.36000061035156 C167.52000427246094,100.05000305175781 167.5800018310547,101.75 167.83999633789062,103.43000030517578 C167.75999450683594,104.77999877929688 167.64999389648438,111.63999938964844 167.6999969482422,112.97000122070312 C167.6300048828125,113.63999938964844 167.6699981689453,114.30999755859375 167.85000610351562,114.95999908447266 C167.80999755859375,115.18000030517578 167.83999633789062,115.41999816894531 167.94000244140625,115.62000274658203 C167.94000244140625,115.62000274658203 175.9600067138672,114.48999786376953 175.9600067138672,114.48999786376953 C176.47999572753906,114.41999816894531 176.6199951171875,113.44999694824219 176.67999267578125,112.91000366210938 C176.58999633789062,112.23999786376953 176.41000366210938,111.58999633789062 176.13999938964844,110.9800033569336 C174.41000366210938,105.31999969482422 175.39999389648438,99.95999908447266 175.3000030517578,93.54000091552734 C175.2100067138672,86.18000030517578 171.77999877929688,79.94999694824219 167.36000061035156,75.20999908447266 C167.36000061035156,75.20999908447266 164.3800048828125,74.0199966430664 164.3800048828125,74.0199966430664 C164.3800048828125,74.0199966430664 164.32000732421875,73.62999725341797 164.32000732421875,73.62999725341797 C164.3699951171875,73.08999633789062 164.66000366210938,73.18000030517578 165.27999877929688,72.81999969482422 C165.5399932861328,72.77999877929688 167.99000549316406,72.04000091552734 168.25,72 C173.97999572753906,69.86000061035156 180.36000061035156,62.79999923706055 181.91000366210938,56.68000030517578 C182.67999267578125,53.040000915527344 183.14999389648438,49.349998474121094 183.30999755859375,45.630001068115234 C183.44000244140625,44.66999816894531 183.50999450683594,40.369998931884766 183.63999938964844,39.40999984741211 C183.63999938964844,39.40999984741211 182.35000610351562,32.09000015258789 182.35000610351562,32.09000015258789 C182.30999755859375,31.81999969482422 182.22999572753906,31.559999465942383 182.11000061035156,31.31999969482422 C181.9499969482422,30.90999984741211 181.8300018310547,30.469999313354492 181.7899932861328,30.020000457763672 C178.5399932861328,24.040000915527344 172.94000244140625,23.360000610351562 166.24000549316406,24.299999237060547 C166.24000549316406,24.299999237060547 162.02000427246094,24.889999389648438 162.02000427246094,24.889999389648438 C158.4499969482422,25.299999237060547 154.9199981689453,25.969999313354492 151.4499969482422,26.90999984741211 C150.9499969482422,27.1200008392334 149.88999938964844,27.270000457763672 149.58999633789062,27.979999542236328 C148.7899932861328,30.90999984741211 148.5399932861328,33.88999938964844 147.8800048828125,36.79999923706055 C147.8800048828125,36.79999923706055 145.14999389648438,57.41999816894531 145.14999389648438,57.41999816894531 C145.14999389648438,57.41999816894531 144.94000244140625,59.72999954223633 144.94000244140625,59.72999954223633 C144.64999389648438,64.33000183105469 143.8300018310547,69 143.5399932861328,73.5999984741211 C142.72999572753906,84.04000091552734 142.3300018310547,94.55000305175781 141.52999877929688,105.12000274658203 C141.52999877929688,105.12000274658203 141.17999267578125,110.26000213623047 141.17999267578125,110.26000213623047 C141.1199951171875,110.58000183105469 141.0800018310547,110.9000015258789 141.0500030517578,111.22000122070312 C140.94000244140625,111.9800033569336 140.91000366210938,112.75 140.97000122070312,113.51000213623047 C140.97000122070312,113.51000213623047 140.6199951171875,118.6500015258789 140.6199951171875,118.6500015258789z M108.05999755859375,79.66000366210938 C107.83000183105469,78.23999786376953 107.81999969482422,76.80000305175781 108,75.37999725341797 C108.19999694824219,72.94000244140625 108.66999816894531,70.5999984741211 109.02999877929688,68.4000015258789 C109.02999877929688,68.4000015258789 109.5,65.11000061035156 109.5,65.11000061035156 C110.23999786376953,59.90999984741211 111.62999725341797,54.5 112.5199966430664,49.40999984741211 C112.70999908447266,48.849998474121094 114.18000030517578,40.20000076293945 115.36000061035156,40.029998779296875 C115.56999969482422,40.16999816894531 115.73999786376953,40.34000015258789 115.86000061035156,40.560001373291016 C115.98999786376953,40.77000045776367 116.05999755859375,41.02000045776367 116.06999969482422,41.27000045776367 C117.2699966430664,51.689998626708984 118.44000244140625,61.97999954223633 119.75,72.26000213623047 C119.86000061035156,73.98999786376953 120.66000366210938,75.87999725341797 120.55000305175781,77.91000366210938 C120.44999694824219,78.19000244140625 120.27999877929688,78.87999725341797 120.1500015258789,78.9000015258789 C120.1500015258789,78.9000015258789 117.91999816894531,79.22000122070312 117.91999816894531,79.22000122070312 C114.62999725341797,79.68000030517578 111.37999725341797,79.45999908447266 108.05999755859375,79.66000366210938 C108.05999755859375,79.66000366210938 108.05999755859375,79.66000366210938 108.05999755859375,79.66000366210938z M92.98999786376953,126.0199966430664 C92.91000366210938,126.43000030517578 92.97000122070312,126.81999969482422 93.36000061035156,126.7699966430664 C93.79000091552734,126.6500015258789 94.22000122070312,126.5 94.63999938964844,126.31999969482422 C94.63999938964844,126.31999969482422 99.23999786376953,125.68000030517578 99.23999786376953,125.68000030517578 C99.86000061035156,125.58999633789062 100.4800033569336,125.4000015258789 101.05000305175781,125.1500015258789 C101.05000305175781,125.1500015258789 102.2699966430664,123.37000274658203 102.2699966430664,123.37000274658203 C101.81999969482422,123.02999877929688 101.69000244140625,122.12000274658203 101.81999969482422,121.16000366210938 C101.81999969482422,121.16000366210938 102.05000305175781,118.9800033569336 102.05000305175781,118.9800033569336 C102.33999633789062,115.58999633789062 102.80999755859375,112.20999908447266 103.44999694824219,108.86000061035156 C104.19000244140625,103.66000366210938 104.80999755859375,98.4800033569336 105.29000091552734,93.31999969482422 C105.45999908447266,91.69000244140625 105.7699966430664,88.16000366210938 105.87999725341797,88.01000213623047 C109.1500015258789,87.41999816894531 112.33999633789062,86.30000305175781 115.2300033569336,85.88999938964844 C115.2300033569336,85.88999938964844 117.06999969482422,85.62999725341797 117.06999969482422,85.62999725341797 C117.06999969482422,85.62999725341797 122.02999877929688,85.61000061035156 122.02999877929688,85.61000061035156 C123.4800033569336,85.41000366210938 123.91999816894531,91.37000274658203 124.25,92.80000305175781 C126.12999725341797,97.5 127.4800033569336,102.38999938964844 128.30999755859375,107.37999725341797 C129.14999389648438,111.41999816894531 129.47000122070312,115.66000366210938 130.66000366210938,119.37999725341797 C130.6999969482422,119.63999938964844 131.13999938964844,119.8499984741211 131.27000427246094,119.83000183105469 C131.27000427246094,119.83000183105469 136.9199981689453,119.04000091552734 136.9199981689453,119.04000091552734 C137.30999755859375,118.98999786376953 138.05999755859375,118.61000061035156 138.1199951171875,118.06999969482422 C137.85000610351562,117.75 137.7100067138672,117.33999633789062 137.69000244140625,116.91999816894531 C137.69000244140625,116.91999816894531 136.07000732421875,110.18000030517578 136.07000732421875,110.18000030517578 C134.6999969482422,104.20999908447266 133.27000427246094,98.77999877929688 132.2899932861328,92.75 C131.9600067138672,91.55000305175781 131.8300018310547,90.29000091552734 131.89999389648438,89.05000305175781 C131.60000610351562,87.87999725341797 130.1300048828125,81.26000213623047 129.92999267578125,79.80999755859375 C129.91000366210938,79.68000030517578 129.9199981689453,78.73999786376953 129.8800048828125,78.4800033569336 C129.27000427246094,76.0199966430664 128.3699951171875,73.45999908447266 128.25999450683594,70.79000091552734 C127.38999938964844,61.709999084472656 125.98999786376953,52.689998626708984 124.05999755859375,43.77000045776367 C124.08000183105469,43.40999984741211 124.02999877929688,43.04999923706055 123.91000366210938,42.709999084472656 C123.81999969482422,41.119998931884766 123.94000244140625,39.09000015258789 123.44000244140625,37.41999816894531 C123.44000244140625,37.41999816894531 122.7699966430664,30.809999465942383 122.7699966430664,30.809999465942383 C122.76000213623047,30.6200008392334 122.69000244140625,30.440000534057617 122.58000183105469,30.290000915527344 C122.45999908447266,30.139999389648438 122.30000305175781,30.020000457763672 122.12000274658203,29.959999084472656 C121.58999633789062,30.030000686645508 119.86000061035156,30.149999618530273 119.47000122070312,30.200000762939453 C118.80999755859375,30.290000915527344 116.98999786376953,30.68000030517578 116.86000061035156,30.700000762939453 C114.8499984741211,31.1299991607666 112.87000274658203,31.670000076293945 110.93000030517578,32.34000015258789 C109.43000030517578,33.09000015258789 109.63999938964844,35.599998474121094 109.19000244140625,37.13999938964844 C109.19000244140625,37.13999938964844 100.26000213623047,82.37000274658203 100.26000213623047,82.37000274658203 C100.26000213623047,82.37000274658203 100.33999633789062,82.88999938964844 100.33999633789062,82.88999938964844 C100.05000305175781,85.61000061035156 99.08999633789062,88.29000091552734 98.93000030517578,91 C98.93000030517578,91 98.79000091552734,91.95999908447266 98.79000091552734,91.95999908447266 C98.79000091552734,91.95999908447266 93.2699966430664,125.16999816894531 93.2699966430664,125.16999816894531 C93.16999816894531,125.29000091552734 93.0999984741211,125.43000030517578 93.05000305175781,125.56999969482422 C93,125.70999908447266 92.9800033569336,125.87000274658203 92.98999786376953,126.0199966430664 C92.98999786376953,126.0199966430664 92.98999786376953,126.0199966430664 92.98999786376953,126.0199966430664z M81.44000244140625,127.7699966430664 C82.63999938964844,127.80000305175781 83.8499984741211,127.7699966430664 85.05000305175781,127.66999816894531 C85.05000305175781,127.66999816894531 85.83999633789062,127.55999755859375 85.83999633789062,127.55999755859375 C86.88999938964844,127.41000366210938 87.33999633789062,126.80999755859375 87.58999633789062,125.69999694824219 C87.7300033569336,125.16000366210938 87.83000183105469,124.5999984741211 87.88999938964844,124.05000305175781 C88.13999938964844,120.12999725341797 87.87000274658203,116.27999877929688 88.13999938964844,112.48999786376953 C88.13999938964844,112.48999786376953 88.62999725341797,88.29000091552734 88.62999725341797,88.29000091552734 C88.62999725341797,88.29000091552734 88.7300033569336,86.12999725341797 88.7300033569336,86.12999725341797 C89.43000030517578,75.83999633789062 89.33000183105469,65.66999816894531 90.1500015258789,55.22999954223633 C90.5199966430664,48.34000015258789 91.4000015258789,41.25 91.87999725341797,34.209999084472656 C91.87999725341797,34.209999084472656 91.87000274658203,33.13999938964844 91.87000274658203,33.13999938964844 C90.2300033569336,33.15999984741211 88.58999633789062,33.290000915527344 86.97000122070312,33.560001373291016 C86.97000122070312,33.560001373291016 85.79000091552734,33.72999954223633 85.79000091552734,33.72999954223633 C85.68000030517578,33.880001068115234 84.54000091552734,35.380001068115234 84.61000061035156,35.900001525878906 C84.61000061035156,35.900001525878906 81.83000183105469,80.93000030517578 81.83000183105469,80.93000030517578 C81.83000183105469,80.93000030517578 82.12999725341797,82.0999984741211 82.12999725341797,82.0999984741211 C82.05000305175781,82.26000213623047 81.91999816894531,82.38999938964844 81.7699966430664,82.4800033569336 C81.62000274658203,82.56999969482422 81.44000244140625,82.62000274658203 81.26000213623047,82.62000274658203 C78.88999938964844,82.95999908447266 77,82.81999969482422 74.88999938964844,83.12000274658203 C71.20999908447266,83.63999938964844 67.44999694824219,84.55999755859375 63.77000045776367,85.08000183105469 C63.77000045776367,85.08000183105469 59.56999969482422,85.66999816894531 59.56999969482422,85.66999816894531 C58.90999984741211,85.76000213623047 57.06999969482422,86.0199966430664 56.560001373291016,85.29000091552734 C56.619998931884766,84.75 56.54999923706055,82.33999633789062 56.630001068115234,81.93000030517578 C56.630001068115234,81.93000030517578 56.08000183105469,74.2300033569336 56.08000183105469,74.2300033569336 C55.97999954223633,71.86000061035156 56.0099983215332,69.48999786376953 56.15999984741211,67.12000274658203 C56.15999984741211,67.12000274658203 56.75,59.93000030517578 56.75,59.93000030517578 C56.5099983215332,58.220001220703125 56.40999984741211,56.47999954223633 56.43000030517578,54.75 C56.40999984741211,54.619998931884766 56.79999923706055,47.849998474121094 56.959999084472656,45.150001525878906 C56.959999084472656,45.150001525878906 57,44.47999954223633 57,44.47999954223633 C57.06999969482422,44.06999969482422 57.529998779296875,39.709999084472656 57.47999954223633,39.31999969482422 C57.56999969482422,39.040000915527344 57.43000030517578,37.97999954223633 57.52000045776367,37.70000076293945 C57.38999938964844,37.720001220703125 57.220001220703125,37.47999954223633 57.09000015258789,37.5 C57.09000015258789,37.5 56.560001373291016,37.56999969482422 56.560001373291016,37.56999969482422 C54.849998474121094,37.810001373291016 53.59000015258789,37.45000076293945 51.75,37.709999084472656 C50.040000915527344,37.95000076293945 49.90999984741211,40.779998779296875 49.70000076293945,42.150001525878906 C49.70000076293945,42.150001525878906 49,52.439998626708984 49,52.439998626708984 C48.959999084472656,53.119998931884766 49.040000915527344,58.459999084472656 49.130001068115234,59.119998931884766 C49.130001068115234,59.119998931884766 49.06999969482422,59.66999816894531 49.06999969482422,59.66999816894531 C49.06999969482422,59.66999816894531 49.70000076293945,75.52999877929688 49.70000076293945,75.52999877929688 C49.70000076293945,75.52999877929688 49.619998931884766,76.87999725341797 49.619998931884766,76.87999725341797 C49.619998931884766,76.87999725341797 50.130001068115234,98.66000366210938 50.130001068115234,98.66000366210938 C50.130001068115234,98.66000366210938 50.06999969482422,99.20999908447266 50.06999969482422,99.20999908447266 C50.06999969482422,99.20999908447266 50.04999923706055,117.16999816894531 50.04999923706055,117.16999816894531 C50.04999923706055,117.16999816894531 50.02000045776367,118.79000091552734 50.02000045776367,118.79000091552734 C49.93000030517578,119.06999969482422 50.099998474121094,121.31999969482422 50.0099983215332,121.5999984741211 C50.0099983215332,121.5999984741211 49.33000183105469,131.0800018310547 49.33000183105469,131.0800018310547 C49.33000183105469,131.0800018310547 50.099998474121094,131.77999877929688 50.099998474121094,131.77999877929688 C50.099998474121094,131.77999877929688 54.7599983215332,131.52999877929688 56.72999954223633,131.25 C57.779998779296875,131.10000610351562 58.060001373291016,130.25 58.08000183105469,129.4499969482422 C58.08000183105469,129.4499969482422 57.540000915527344,106.47000122070312 57.540000915527344,106.47000122070312 C57.470001220703125,103.12999725341797 57.369998931884766,99.6500015258789 57.56999969482422,96.2699966430664 C57.56999969482422,96.2699966430664 57.63999938964844,94.79000091552734 57.63999938964844,94.79000091552734 C57.63999938964844,94.79000091552734 58.130001068115234,94.44999694824219 58.130001068115234,94.44999694824219 C58.130001068115234,94.44999694824219 71.04000091552734,92.91000366210938 71.04000091552734,92.91000366210938 C71.16999816894531,92.88999938964844 71.8499984741211,92.93000030517578 72.11000061035156,92.88999938964844 C74.5,92.83000183105469 76.9000015258789,92.63999938964844 79.2699966430664,92.29000091552734 C80.12999725341797,92.22000122070312 80.95999908447266,91.95999908447266 81.70999908447266,91.54000091552734 C81.86000061035156,91.6500015258789 82.01000213623047,91.7699966430664 81.9000015258789,91.91999816894531 C82.30999755859375,93.87000274658203 82.12000274658203,96.30999755859375 82.0199966430664,98.47000122070312 C82.0199966430664,98.47000122070312 81.58999633789062,104.97000122070312 81.58999633789062,104.97000122070312 C81.61000061035156,106.9800033569336 81.05999755859375,123.13999938964844 80.94000244140625,125.16000366210938 C80.94000244140625,125.16000366210938 80.81999969482422,126.25 80.81999969482422,126.25 C80.77999877929688,126.93000030517578 80.86000061035156,127.44999694824219 81.44000244140625,127.7699966430664 C81.44000244140625,127.7699966430664 81.44000244140625,127.7699966430664 81.44000244140625,127.7699966430664z M0.5600000023841858,87.38999938964844 C-0.41999998688697815,100.4000015258789 0.3199999928474426,113.30999755859375 4.440000057220459,124.5199966430664 C4.650000095367432,125.66999816894531 4.980000019073486,126.79000091552734 5.440000057220459,127.86000061035156 C7.75,131.88999938964844 11.529999732971191,134.8699951171875 15.989999771118164,136.1699981689453 C16.969999313354492,136.44000244140625 18.790000915527344,136.0500030517578 19.540000915527344,136.61000061035156 C20.06999969482422,136.5399932861328 22.450000762939453,136.3300018310547 22.969999313354492,136.25999450683594 C29.149999618530273,135.38999938964844 33.439998626708984,134.3800048828125 36.18000030517578,127.16000366210938 C37.18000030517578,124.55000305175781 38.02000045776367,121.87999725341797 38.68000030517578,119.16999816894531 C38.88999938964844,117.80000305175781 38.959999084472656,116.44999694824219 39.040000915527344,115.0999984741211 C39.150001525878906,112.76000213623047 39.45000076293945,110.43000030517578 39.939998626708984,108.13999938964844 C39.959999084472656,108.04000091552734 39.95000076293945,107.93000030517578 39.90999984741211,107.83000183105469 C39.869998931884766,107.7300033569336 39.81999969482422,107.6500015258789 39.7400016784668,107.58000183105469 C39.66999816894531,107.51000213623047 39.56999969482422,107.45999908447266 39.470001220703125,107.44000244140625 C39.369998931884766,107.41999816894531 39.27000045776367,107.41000366210938 39.16999816894531,107.44000244140625 C38.529998779296875,107.66000366210938 34.939998626708984,108.83999633789062 34.54999923706055,108.88999938964844 C34.15999984741211,108.94000244140625 33.349998474121094,108.93000030517578 32.689998626708984,109.0199966430664 C31.899999618530273,109.12999725341797 31.1299991607666,109.37000274658203 31,110.33000183105469 C31.049999237060547,111.66000366210938 30.899999618530273,120.12999725341797 30.770000457763672,121.08999633789062 C30.770000457763672,121.08999633789062 30.6299991607666,122.9800033569336 30.6299991607666,122.9800033569336 C30.56999969482422,124.45999908447266 30.290000915527344,126.25 28.950000762939453,127.23999786376953 C27.34000015258789,128.5 25.40999984741211,129.2899932861328 23.3700008392334,129.5 C11.800000190734863,131.1300048828125 8.739999771118164,115.06999969482422 8.15999984741211,106.16999816894531 C8.069999694824219,103.62999725341797 8.229999542236328,91.41000366210938 8.270000457763672,88.86000061035156 C8.25,88.7300033569336 8.399999618530273,84.0199966430664 8.550000190734863,82.25 C8.649999618530273,80.08999633789062 9.289999961853027,74.0999984741211 9.229999542236328,73.70999908447266 C9.4399995803833,72.33999633789062 9.859999656677246,67.72000122070312 9.880000114440918,66.91000366210938 C11.100000381469727,58.43000030517578 13.010000228881836,52 22.350000381469727,50.689998626708984 C22.350000381469727,50.689998626708984 23.93000030517578,50.459999084472656 23.93000030517578,50.459999084472656 C24.510000228881836,50.349998474121094 25.100000381469727,50.369998931884766 25.670000076293945,50.4900016784668 C31.729999542236328,51.650001525878906 32.13999938964844,53.599998474121094 32.779998779296875,60.08000183105469 C32.79999923706055,60.209999084472656 32.709999084472656,60.4900016784668 32.84000015258789,60.470001220703125 C32.84000015258789,60.470001220703125 37.18000030517578,59.86000061035156 37.18000030517578,59.86000061035156 C37.70000076293945,59.790000915527344 39.77000045776367,58.29999923706055 39.810001373291016,57.619998931884766 C39.810001373291016,57.619998931884766 39.630001068115234,56.29999923706055 39.630001068115234,56.29999923706055 C39.099998474121094,50.61000061035156 38.560001373291016,44.91999816894531 33.040000915527344,43.81999969482422 C29.309999465942383,43 25.739999771118164,43.380001068115234 21.670000076293945,43.95000076293945 C12.069999694824219,45.29999923706055 7.920000076293945,51.099998474121094 4.559999942779541,60.560001373291016 C4.130000114440918,62.22999954223633 3.3299999237060547,64.22000122070312 3.0299999713897705,65.87000274658203 C3.0299999713897705,65.87000274658203 0.7200000286102295,83.75 0.7200000286102295,83.75 C0.7200000286102295,83.75 0.5600000023841858,87.38999938964844 0.5600000023841858,87.38999938964844z"></path></g></g></g></g><g transform="matrix(1,0,0,1,0,0)" opacity="1" style="display: block;"><path fill="rgb(0,0,0)" fill-opacity="0" d=" M431,0 C431,0 0,0 0,0 C0,0 0,183 0,183 C0,183 431,183 431,183 C431,183 431,0 431,0z"></path></g></g></g><g mask="url(#__lottie_element_47_1)" style="display: block;"><g clip-path="url(#__lottie_element_44)" transform="matrix(1,0,0,1,25,327)" opacity="1"><g mask="url(#__lottie_element_174_1)" style="display: block;"><g clip-path="url(#__lottie_element_171)" transform="matrix(1,0,0,1,0,0)" opacity="1"><g clip-path="url(#__lottie_element_181)" transform="matrix(1.0000057220458984,0,0,1.0000057220458984,46.99867248535156,7.9997711181640625)" opacity="1" style="display: block;"><g transform="matrix(1.333299994468689,0,0,1.333299994468689,0,0)" opacity="1" style="display: block;"><g opacity="1" transform="matrix(1,0,0,1,0,0)"><g opacity="1" transform="matrix(1,0,0,1,0,0)"><path fill="rgb(255,255,255)" fill-opacity="1" d=" M2.190000057220459,57.709999084472656 C118.05000305175781,54.16999816894531 229.2100067138672,7.980000019073486 345,2.4200000762939453 C345,2.4200000762939453 2.190000057220459,57.709999084472656 2.190000057220459,57.709999084472656z"></path></g><g opacity="1" transform="matrix(0.75,0,0,0.75,0,0)"><path stroke-linecap="round" stroke-linejoin="miter" fill-opacity="0" stroke-miterlimit="10" stroke="rgb(255,255,255)" stroke-opacity="1" stroke-width="5" d=" M2.9200000762939453,76.94000244140625 C157.39999389648438,72.2300033569336 305.6199951171875,10.640000343322754 460,3.2300000190734863"></path></g></g></g><g transform="matrix(1,0,0,1,0,0)" opacity="1" style="display: block;"><path fill="rgb(0,0,0)" fill-opacity="0" d=" M463,0 C463,0 0,0 0,0 C0,0 0,80 0,80 C0,80 463,80 463,80 C463,80 463,0 463,0z"></path></g></g></g></g></g></g><g mask="url(#__lottie_element_56_1)" style="display: block;"><g clip-path="url(#__lottie_element_53)" transform="matrix(1,0,0,1,-12,5)" opacity="1"><g mask="url(#__lottie_element_220_1)" style="display: block;"><g clip-path="url(#__lottie_element_217)" transform="matrix(1,0,0,1,0,0)" opacity="1"><g clip-path="url(#__lottie_element_227)" transform="matrix(1.0000057220458984,0,0,1.0000057220458984,46.99867248535156,7.9997711181640625)" opacity="1" style="display: block;"><g transform="matrix(1.333299994468689,0,0,1.333299994468689,0,0)" opacity="1" style="display: block;"><g opacity="1" transform="matrix(1,0,0,1,0,0)"><g opacity="1" transform="matrix(1,0,0,1,0,0)"><path fill="rgb(255,255,255)" fill-opacity="1" d=" M2.450000047683716,57.5 C63.970001220703125,55.630001068115234 124.16999816894531,41.720001220703125 184.55999755859375,28.229999542236328 C237.6699981689453,16.3700008392334 290.9700012207031,4.829999923706055 345.2699890136719,2.2200000286102295"></path></g><g opacity="1" transform="matrix(0.75,0,0,0.75,0,0)"><path stroke-linecap="round" stroke-linejoin="miter" fill-opacity="0" stroke-miterlimit="10" stroke="rgb(255,255,255)" stroke-opacity="1" stroke-width="5" d=" M3.2699999809265137,76.66999816894531 C85.30000305175781,74.16999816894531 165.55999755859375,55.630001068115234 246.0800018310547,37.650001525878906 C316.8900146484375,21.829999923706055 387.94000244140625,6.429999828338623 460.3500061035156,2.9600000381469727"></path></g></g></g><g transform="matrix(1,0,0,1,0,0)" opacity="1" style="display: block;"><path fill="rgb(0,0,0)" fill-opacity="0" d=" M463,0 C463,0 0,0 0,0 C0,0 0,80 0,80 C0,80 463,80 463,80 C463,80 463,0 463,0z"></path></g></g></g></g></g></g></g></svg>